<svg xmlns="http://www.w3.org/2000/svg" viewBox="0 0 50 50" enable-background="new 0 0 50 50">
    <path style="text-indent:0;text-align:start;line-height:normal;text-transform:none;block-progression:tb;-inkscape-font-specification:Bitstream Vera Sans" d="M 46 0 C 44.718182 0 43.433202 0.41985432 42.34375 1.40625 C 41.370398 2.2875285 40.498712 3.5976207 39.59375 5.4375 C 39.435168 5.437333 39.283033 5.4440717 39.125 5.46875 C 38.061893 5.6347646 37.112123 6.2655034 36.5 7.15625 C 36.041924 7.0702397 35.549714 7 35 7 C 33.705072 7 32.361538 7.2960062 31.1875 8.09375 C 30.02189 8.8857674 29.073326 10.147271 28.46875 11.9375 C 28.464379 11.950444 28.441833 11.95575 28.4375 11.96875 L 28.4375 12 C 28.431448 12.019625 28.443556 12.042899 28.4375 12.0625 C 27.948062 13.296391 27.368622 13.920764 27 14.125 C 26.618639 14.336294 26.386702 14.312564 25.96875 14.03125 C 25.132846 13.468622 24.09375 11.446914 24.09375 9 A 1.0001 1.0001 0 0 0 22.375 8.3125 C 19.035453 11.864082 19.128093 15.052482 19.625 17.40625 C 19.873453 18.583134 20.148767 19.576822 20.15625 20.375 C 20.16375 21.173178 20.000832 21.780418 19.1875 22.59375 C 19.037934 22.743316 18.557791 22.977005 18.0625 22.96875 C 17.567209 22.96045 17.097891 22.794238 16.6875 22.28125 C 16.521515 22.071003 16.453367 21.799258 16.5 21.28125 C 16.54663 20.763242 16.734724 20.080679 16.875 19.3125 C 17.015276 18.544321 17.107251 17.665672 16.90625 16.75 C 16.705249 15.834328 16.1515 14.9105 15.1875 14.1875 A 1.0001 1.0001 0 0 0 13.625 15.15625 C 13.752907 15.923694 13.67356 16.401234 13.5625 16.65625 C 13.451445 16.911266 13.309 16.986564 13.125 17.0625 C 12.757001 17.214373 12.02185 16.9847 11.96875 16.9375 A 1.0001 1.0001 0 0 0 11.9375 16.9375 C 11.465537 16.544197 11.061594 16.117598 11 14.90625 C 10.938406 13.694902 11.347607 11.652202 12.90625 8.4375 A 1.0001 1.0001 0 0 0 11.90625 7 A 1.0001 1.0001 0 0 0 11.46875 7.15625 C 7.7752223 9.5662113 6.1445657 12.309489 6 15.03125 C 5.8554343 17.753011 7.0890643 20.277161 8.46875 22.59375 C 9.8484357 24.910339 11.405874 27.050552 12.21875 28.8125 C 12.625188 29.693474 12.836076 30.464742 12.8125 31.0625 C 12.78892 31.660258 12.615645 32.120554 12.03125 32.65625 A 1.0001 1.0001 0 0 0 12 32.6875 C 11.698808 32.975001 11.372714 33.038091 10.875 32.9375 C 10.377286 32.836909 9.7749204 32.498767 9.25 31.96875 C 8.2001591 30.908717 7.5468684 29.204981 8.25 27.34375 A 1.0001 1.0001 0 0 0 6.8125 26.125 C 4.3965357 27.45378 2.3365129 30.792844 3.21875 35.09375 C 3.5091606 36.661967 4.3892139 38.8878 4.65625 41.09375 C 4.789768 42.196725 4.7644367 43.266195 4.5 44.15625 C 4.2628644 44.954414 3.830986 45.626446 3.09375 46.1875 C 2.9612729 46.251663 2.8116414 46.3141 2.6875 46.375 C 2.3500672 46.540533 2.0725046 46.686538 1.8125 46.84375 C 1.6824977 46.922356 1.5450191 46.999565 1.40625 47.125 C 1.2674809 47.250435 1 47.434722 1 48 C 1 48.241667 1.1351845 48.681004 1.40625 48.96875 C 1.6773155 49.256496 2.0080983 49.424767 2.4375 49.5625 C 3.2963035 49.837965 4.6003546 50 7 50 C 11.822043 50 20.444098 48.771326 28.8125 44.0625 C 37.180902 39.353674 45.241262 31.113834 48.65625 17.25 L 48.6875 17.25 L 48.6875 17.21875 C 49.224861 14.961835 49.06377 13.089477 48.40625 11.625 C 47.74873 10.160523 46.592287 9.1754714 45.3125 8.59375 C 44.646959 8.2912313 44.012097 8.1560438 43.40625 8.09375 C 43.088636 7.1719724 42.450029 6.4048568 41.59375 5.9375 C 42.366617 4.4406432 43.058202 3.4447702 43.6875 2.875 C 44.448048 2.1863957 45.081818 2 46 2 A 1.0001 1.0001 0 1 0 46 0 z M 39.5625 7.4375 A 1.0001 1.0001 0 0 0 40.34375 7.59375 C 40.674306 7.6986776 40.962658 7.8826648 41.1875 8.15625 C 40.543431 8.2467287 40.003118 8.3519042 39.6875 8.3125 C 39.6836 8.3117197 39.66032 8.3134427 39.65625 8.3125 C 39.471908 8.2697888 39.075351 8.0501187 38.5625 7.8125 C 38.852354 7.5899159 39.193129 7.4671194 39.5625 7.4375 z M 35 9 C 35.617338 9 36.117627 9.0793363 36.5625 9.21875 A 1.0040202 1.0040202 0 0 0 36.75 9.28125 C 37.642716 9.5937121 38.317084 10.082167 39.3125 10.28125 L 39.34375 10.28125 C 40.334135 10.422734 41.180804 10.18477 42 10.09375 C 42.819196 10.00273 43.607846 10.00073 44.5 10.40625 C 45.420213 10.824529 46.15127 11.483227 46.59375 12.46875 C 47.033532 13.448263 47.171038 14.82558 46.71875 16.75 C 46.71595 16.76181 46.72155 16.7694 46.71875 16.78125 C 43.429662 30.098879 35.819313 37.855971 27.84375 42.34375 C 19.862152 46.834924 11.477957 48 7 48 C 5.4789348 48 5.0370224 47.88082 4.375 47.78125 C 4.8725554 47.536146 5.350102 47.282135 5.875 46.96875 C 5.88175 46.96505 5.899497 46.97245 5.90625 46.96875 C 13.099867 43.013733 23.260313 35.502174 30.3125 12.75 C 30.322628 12.717325 30.333635 12.688988 30.34375 12.65625 A 1.0040202 1.0040202 0 0 0 30.34375 12.625 C 30.34685 12.61491 30.34065 12.60385 30.34375 12.59375 C 30.348423 12.579889 30.37029 12.576251 30.375 12.5625 A 1.0040202 1.0040202 0 0 0 30.40625 12.4375 C 30.89781 11.070896 31.571997 10.253163 32.3125 9.75 C 33.088462 9.2227438 33.994928 9 35 9 z M 22.53125 11.375 C 22.935025 13.219614 23.635032 14.852906 24.875 15.6875 C 25.493836 16.104024 26.274521 16.298483 27.03125 16.1875 C 20.777512 33.853181 12.824505 40.561756 6.5 44.3125 C 6.7676414 43.167266 6.7628215 41.982275 6.625 40.84375 C 6.3170361 38.2997 5.3970894 35.850533 5.1875 34.71875 A 1.0001 1.0001 0 0 0 5.1875 34.6875 C 4.7467298 32.538745 5.256029 30.86059 6.0625 29.625 C 6.248412 31.108865 6.8816629 32.435126 7.8125 33.375 C 8.5750796 34.144983 9.5133385 34.706841 10.5 34.90625 C 11.486661 35.105659 12.576192 34.8875 13.375 34.125 C 14.290605 33.285696 14.77006 32.23232 14.8125 31.15625 C 14.85494 30.08018 14.542 29.039338 14.0625 28 C 13.103501 25.921323 11.464064 23.758411 10.15625 21.5625 C 8.8484357 19.366589 7.8914407 17.168864 8 15.125 C 8.0614238 13.968564 8.6119609 12.811901 9.53125 11.625 C 9.1481565 12.953412 8.9528809 14.073324 9 15 C 9.087255 16.716025 9.9036529 17.825441 10.625 18.4375 C 10.63561 18.4469 10.64553 18.45948 10.65625 18.46875 C 11.501331 19.198959 12.714374 19.429385 13.90625 18.9375 C 14.331896 18.761836 14.623602 18.289957 14.9375 17.875 C 14.937469 18.225305 14.98128 18.557857 14.90625 18.96875 C 14.784026 19.638071 14.600242 20.358633 14.53125 21.125 C 14.46226 21.891367 14.54095 22.791497 15.125 23.53125 C 15.914609 24.518262 17.026541 24.952005 18.03125 24.96875 C 19.035959 24.9855 19.943316 24.650434 20.59375 24 C 21.730418 22.863332 22.167517 21.545572 22.15625 20.34375 C 22.14498 19.141928 21.820297 18.073116 21.59375 17 C 21.229097 15.272698 21.06696 13.59123 22.53125 11.375 z" color="#000" overflow="visible" enable-background="accumulate" font-family="Bitstream Vera Sans"></path>
</svg>