<svg xmlns="http://www.w3.org/2000/svg" version="1" viewBox="0 0 50 50" enable-background="new 0 0 50 50">
    <path style="text-indent:0;text-align:start;line-height:normal;text-transform:none;block-progression:tb;-inkscape-font-specification:Bitstream Vera Sans" d="M 46.96875 -0.03125 A 1.0083877 1.0083877 0 0 0 46.8125 0 A 1.0001 1.0001 0 0 0 46.75 0.03125 L 38.75 2.03125 A 1.0001 1.0001 0 0 0 38.09375 2.5625 L 29.09375 20.5625 A 1.0063276 1.0063276 0 0 0 30.90625 21.4375 L 33.75 15.78125 C 35.830127 16.35482 37.570219 17.150852 38.75 18.0625 C 39.984837 19.016692 40.5625 20.01484 40.5625 21 A 0.9375 0.9375 0 0 0 40.5625 21.09375 C 40.014944 21.422751 39.36847 21.738834 38.65625 22.03125 C 35.747713 23.225405 31.590071 24 27 24 C 22.409929 24 18.252287 23.225405 15.34375 22.03125 C 14.656055 21.748903 14.034467 21.44174 13.5 21.125 A 1.0001 1.0001 0 0 0 13.5 21 C 13.5 20.463725 13.80761 19.652455 14.3125 18.96875 C 14.81739 18.285045 15.519029 17.735052 16.0625 17.53125 A 1.0001 1.0001 0 0 0 15.625 15.59375 A 1.0001 1.0001 0 0 0 15.34375 15.65625 C 14.287221 16.052448 13.38261 16.839955 12.6875 17.78125 C 12.259162 18.361291 11.925353 19.005154 11.71875 19.6875 C 11.241877 19.125242 11.015107 18.587125 11 18.0625 A 1.0001 1.0001 0 0 0 11 17.84375 C 11.082542 16.988349 11.865709 15.910192 13.40625 14.96875 A 1.0021949 1.0021949 0 1 0 12.375 13.25 C 10.472137 14.412861 9.1197591 15.971032 9.03125 17.8125 C 9.007177 17.904452 8.4329819 20.015683 7.90625 22.6875 C 5.5444699 21.132615 4 18.527602 4 15.5 C 4 10.851282 7.8512821 7 12.5 7 C 17.148718 7 21 10.851282 21 15.5 C 21 16.697436 20.793751 17.859998 20.375 18.78125 A 1.0138205 1.0138205 0 0 0 22.21875 19.625 C 22.799999 18.346252 23 16.902564 23 15.5 C 23 15.404558 22.971348 15.313622 22.96875 15.21875 C 24.222593 15.017235 25.561506 14.9375 27 14.9375 C 27.9 14.9375 28.76091 14.9387 29.59375 15.03125 A 0.92834067 0.92834067 0 0 0 29.8125 13.1875 C 28.84534 13.080038 27.9 13.0625 27 13.0625 C 25.538294 13.0625 24.132899 13.158823 22.78125 13.375 C 22.700244 12.990158 22.591254 12.618705 22.46875 12.25 C 23.883471 12.059113 25.426908 12 27 12 C 28.248718 12 29.5125 12.0875 30.8125 12.1875 A 1.0030471 1.0030471 0 1 0 30.96875 10.1875 C 29.66875 10.0875 28.351282 10 27 10 C 25.174325 10 23.330196 10.100876 21.625 10.375 C 19.811461 7.1892589 16.390021 5 12.5 5 C 6.7487179 5 2 9.7487179 2 15.5 C 2 19.530146 4.2600311 22.962585 7.5625 24.78125 C 7.2588014 26.606601 7 28.48493 7 30 C 7 41.039683 15.960317 50 27 50 C 38.039683 50 47 41.039683 47 30 C 47 24.827891 44.96875 17.71875 44.96875 17.71875 C 44.853791 16.089106 43.761643 14.686544 42.1875 13.59375 C 40.62648 12.510067 38.525809 11.675269 36.09375 11.0625 L 39.6875 3.84375 L 47.25 1.96875 A 1.0083877 1.0083877 0 0 0 46.96875 -0.03125 z M 35.15625 12.875 C 37.617242 13.454057 39.669637 14.304748 41.03125 15.25 C 42.308605 16.136759 42.92898 17.033679 43 17.84375 A 1.0087508 1.0087508 0 0 0 43 17.9375 C 43.000746 17.958695 43 17.978929 43 18 A 1.0087508 1.0087508 0 0 0 43 18.03125 C 42.992181 18.575516 42.755775 19.1339 42.25 19.71875 C 41.87947 18.524079 41.002595 17.465074 39.875 16.59375 C 38.497226 15.529106 36.674908 14.705051 34.5625 14.09375 L 35.15625 12.875 z M 43.71875 21.0625 C 44.291744 23.549604 45 27.158389 45 30 C 45 39.960317 36.960317 48 27 48 C 17.039683 48 9 39.960317 9 30 C 9 27.583685 9.7365557 23.771177 10.3125 21.125 C 10.415537 21.240869 10.512344 21.358757 10.625 21.46875 C 11.615442 22.435781 12.973018 23.209578 14.59375 23.875 C 17.835213 25.205845 22.190071 26 27 26 C 30.872346 26 34.436072 25.488856 37.375 24.59375 C 37.141894 30.977422 34.96875 36.21875 34.96875 36.21875 A 1.00122 1.00122 0 1 0 36.8125 37 C 36.8125 37 39.320858 31.044188 39.40625 23.875 C 41.026982 23.209578 42.384558 22.435781 43.375 21.46875 C 43.504148 21.342655 43.602322 21.196279 43.71875 21.0625 z"></path>
</svg>