<svg xmlns="http://www.w3.org/2000/svg" width="50" height="50" viewBox="0 0 50 50">
    <path style="text-indent:0;text-align:start;line-height:normal;text-transform:none;block-progression:tb;-inkscape-font-specification:Bitstream Vera Sans" d="M 31 0 C 22.653227 0 15.524695 5.4281633 13.03125 12.96875 C 5.4656621 15.474386 0 22.601672 0 31 C 0 41.481565 8.5184344 50 19 50 C 27.398328 50 34.525614 44.534338 37.03125 36.96875 C 44.571836 34.475305 50 27.346773 50 19 C 50 8.5545455 41.445455 0 31 0 z M 31 2 C 40.354545 2 48 9.6454545 48 19 C 48 25.999271 43.723463 32.053354 37.65625 34.625 C 37.885462 33.446799 38 32.244526 38 31 C 38 29.23569 37.763947 27.528052 37.3125 25.90625 C 37.537588 25.960188 37.758375 26 38 26 C 39.656854 26 41 24.656854 41 23 C 41 21.343146 39.656854 20 38 20 C 36.905209 20 35.961365 20.592877 35.4375 21.46875 C 33.638698 18.375841 30.987266 15.855238 27.8125 14.1875 C 27.919486 13.981103 28 13.748528 28 13.5 C 28 12.671573 27.328427 12 26.5 12 C 25.844162 12 25.29759 12.413588 25.09375 13 C 23.179265 12.350811 21.13198 12 19 12 C 17.755474 12 16.553201 12.114538 15.375 12.34375 C 17.946646 6.2765375 24.000729 2 31 2 z M 32.5 9 C 31.119288 9 30 10.119288 30 11.5 C 30 12.880712 31.119288 14 32.5 14 C 33.880712 14 35 12.880712 35 11.5 C 35 10.119288 33.880712 9 32.5 9 z M 19 14 C 28.400685 14 36 21.599315 36 31 C 36 32.59248 35.782963 34.132841 35.375 35.59375 A 1.0001 1.0001 0 0 0 35.34375 35.625 A 1.0001 1.0001 0 0 0 35.15625 36.28125 A 1.0001 1.0001 0 0 0 35.15625 36.3125 C 32.928978 43.104267 26.544206 48 19 48 C 9.5993146 48 2 40.400685 2 31 C 2 23.466062 6.8788911 17.079285 13.65625 14.84375 C 13.665487 14.840703 13.678256 14.846781 13.6875 14.84375 A 1.0001 1.0001 0 0 0 14.375 14.625 C 14.384749 14.622259 14.396494 14.627724 14.40625 14.625 C 15.867159 14.217037 17.40752 14 19 14 z M 39.5 14 C 38.671573 14 38 14.671573 38 15.5 C 38 16.328427 38.671573 17 39.5 17 C 40.328427 17 41 16.328427 41 15.5 C 41 14.671573 40.328427 14 39.5 14 z M 13 25 C 11.343146 25 10 26.343146 10 28 C 10 29.656854 11.343146 31 13 31 C 14.656854 31 16 29.656854 16 28 C 16 26.343146 14.656854 25 13 25 z M 22.5 25 C 21.671573 25 21 25.671573 21 26.5 C 21 27.328427 21.671573 28 22.5 28 C 23.328427 28 24 27.328427 24 26.5 C 24 25.671573 23.328427 25 22.5 25 z M 26.5 31 C 25.119288 31 24 32.119288 24 33.5 C 24 34.880712 25.119288 36 26.5 36 C 27.880712 36 29 34.880712 29 33.5 C 29 32.119288 27.880712 31 26.5 31 z M 12.5 35 C 11.671573 35 11 35.671573 11 36.5 C 11 37.328427 11.671573 38 12.5 38 C 13.328427 38 14 37.328427 14 36.5 C 14 35.671573 13.328427 35 12.5 35 z M 20.5 39 C 19.671573 39 19 39.671573 19 40.5 C 19 41.328427 19.671573 42 20.5 42 C 21.328427 42 22 41.328427 22 40.5 C 22 39.671573 21.328427 39 20.5 39 z"></path>
</svg>