<svg xmlns="http://www.w3.org/2000/svg" width="50" height="50" viewBox="0 0 50 50">
    <path style="text-indent:0;text-align:start;line-height:normal;text-transform:none;block-progression:tb;-inkscape-font-specification:Bitstream Vera Sans" d="M 25 0 C 23.430419 0 22.234625 0.99900609 21.5625 2.3125 C 16.478847 2.9876714 11.092885 5.2189514 6.90625 8.53125 C 6.8307754 8.5160309 6.7638748 8.4758825 6.6875 8.46875 C 6.2751828 8.4302446 5.8705498 8.493799 5.5 8.625 C 4.7589007 8.8874019 4.0865367 9.415378 3.46875 10.09375 C 2.8509633 10.772122 2.3796277 11.487654 2.1875 12.25 C 2.0761919 12.691661 2.0850457 13.185903 2.21875 13.65625 C 0.87058565 15.813189 0 18.334117 0 21 C 0 22.622414 0.3988442 24.058317 1.1875 25.15625 C 1.9761558 26.254183 3.2104167 27 4.59375 27 L 4.90625 27 L 12.25 47.4375 A 1.0001 1.0001 0 0 0 13.1875 48.09375 L 18.6875 48.09375 A 1.0001 1.0001 0 0 0 19.375 48.09375 L 30.65625 48.09375 A 1.0001 1.0001 0 0 0 31.34375 48.09375 L 36.8125 48.09375 A 1.0001 1.0001 0 0 0 37.75 47.4375 L 45.125 27 C 46.630551 26.969663 47.941036 26.405907 48.78125 25.34375 C 49.645394 24.251342 50 22.781313 50 21 C 50 15.762469 45.81494 10.721252 40.34375 7.125 C 40.275159 6.8022889 40.167343 6.4919726 40 6.21875 C 39.589225 5.5480732 38.948449 4.9635692 38.15625 4.5 C 37.364051 4.0364301 36.535919 3.7795906 35.75 3.75 C 35.285318 3.732504 34.798631 3.8338808 34.375 4.0625 C 32.414222 3.2993162 30.415053 2.6968361 28.4375 2.3125 C 27.765375 0.99900609 26.569581 0 25 0 z M 25 2 C 25.971429 2 26.650895 2.5685346 26.9375 3.5 A 1.0001 1.0001 0 0 0 27.71875 4.1875 C 29.56371 4.5229473 31.490934 5.095782 33.375 5.8125 C 33.393094 6.2808798 33.548912 6.7456601 33.78125 7.125 C 34.192026 7.7956768 34.864051 8.3489303 35.65625 8.8125 C 36.448449 9.2760693 37.214081 9.5641594 38 9.59375 C 38.567215 9.6151062 39.175155 9.4678386 39.65625 9.09375 C 44.552272 12.445746 48 16.987713 48 21 C 48 22.518687 47.679606 23.542408 47.21875 24.125 C 46.757894 24.707592 46.140123 25 45 25 L 44.8125 25 A 1.0001 1.0001 0 0 0 44.40625 24.9375 A 1.0001 1.0001 0 0 0 44.125 25 L 4.59375 25 C 3.8770833 25 3.2988442 24.677067 2.8125 24 C 2.3261558 23.322933 2 22.277586 2 21 C 2 18.90363 2.6347881 16.836408 3.6875 15.03125 C 4.1482124 15.112999 4.6324318 15.058525 5.0625 14.90625 C 5.8035997 14.643848 6.5384633 14.115872 7.15625 13.4375 C 7.7740367 12.759128 8.1828725 12.043595 8.375 11.28125 C 8.4863081 10.839589 8.49988 10.336523 8.375 9.875 C 12.332328 6.8320133 17.534548 4.7279849 22.21875 4.1875 A 1.0001 1.0001 0 0 0 23.0625 3.5 C 23.349105 2.5685346 24.028571 2 25 2 z M 35.53125 5.78125 C 35.580763 5.7811082 35.596799 5.7778352 35.6875 5.78125 C 36.050307 5.79491 36.613908 5.9013889 37.15625 6.21875 C 37.698592 6.5361112 38.091621 6.9716424 38.28125 7.28125 C 38.376064 7.4360538 38.394694 7.5222522 38.40625 7.5625 C 38.356954 7.5784315 38.258797 7.5999642 38.09375 7.59375 C 37.730942 7.58009 37.198592 7.4111112 36.65625 7.09375 C 36.113908 6.7763889 35.720878 6.3721077 35.53125 6.0625 C 35.481875 5.9818852 35.464433 5.9548118 35.4375 5.90625 A 1.0001 1.0001 0 0 0 35.53125 5.78125 z M 17 8 C 16.514338 8.0102004 16.026205 8.122257 15.59375 8.40625 C 14.728838 8.974236 14.325903 9.9897977 14.3125 10.96875 C 14.2991 11.947701 14.634198 12.968526 15.25 13.90625 C 15.865802 14.843975 16.658834 15.560785 17.5625 15.9375 C 18.466166 16.314214 19.572589 16.349236 20.4375 15.78125 C 21.302412 15.213264 21.674097 14.228952 21.6875 13.25 C 21.7009 12.271049 21.365802 11.250224 20.75 10.3125 C 20.134198 9.374775 19.309916 8.6579643 18.40625 8.28125 C 17.954417 8.0928929 17.485662 7.9897996 17 8 z M 16.84375 10 C 17.032354 9.9477241 17.305381 9.9787339 17.65625 10.125 C 18.124077 10.320024 18.678658 10.77416 19.09375 11.40625 C 19.508842 12.038339 19.694438 12.711947 19.6875 13.21875 C 19.6806 13.725552 19.540772 13.995616 19.34375 14.125 C 19.146728 14.254384 18.811577 14.288777 18.34375 14.09375 C 17.875922 13.898726 17.321342 13.44459 16.90625 12.8125 C 16.491158 12.180411 16.305562 11.506803 16.3125 11 C 16.3194 10.493198 16.490478 10.223134 16.6875 10.09375 C 16.736756 10.061404 16.780882 10.017425 16.84375 10 z M 6.1875 10.53125 A 1.0001 1.0001 0 0 0 6.4375 10.71875 C 6.4342106 10.734223 6.4418854 10.732599 6.4375 10.75 C 6.348807 11.101925 6.1104387 11.629334 5.6875 12.09375 C 5.2645613 12.558166 4.748367 12.878866 4.40625 13 C 4.2516394 13.054743 4.1729218 13.059979 4.125 13.0625 A 1.0001 1.0001 0 0 0 4.09375 13.03125 C 4.0899116 12.980628 4.0894296 12.922388 4.125 12.78125 C 4.213693 12.429325 4.5145613 11.901916 4.9375 11.4375 C 5.3604387 10.973084 5.845383 10.652384 6.1875 10.53125 z M 37.90625 13.90625 C 36.983361 13.90625 36.195284 14.45399 35.71875 15.15625 C 35.242216 15.85851 35 16.730937 35 17.6875 C 35 18.644062 35.242216 19.54774 35.71875 20.25 C 36.195284 20.95226 36.98336 21.5 37.90625 21.5 C 38.82914 21.5 39.585966 20.95226 40.0625 20.25 C 40.539034 19.54774 40.8125 18.644062 40.8125 17.6875 C 40.8125 16.730937 40.539034 15.85851 40.0625 15.15625 C 39.585966 14.45399 38.829139 13.90625 37.90625 13.90625 z M 37.90625 15.90625 C 38.032702 15.90625 38.195119 15.97011 38.40625 16.28125 C 38.617381 16.59239 38.8125 17.097665 38.8125 17.6875 C 38.8125 18.277335 38.617381 18.81386 38.40625 19.125 C 38.195119 19.43614 38.032701 19.5 37.90625 19.5 C 37.779799 19.5 37.586131 19.43614 37.375 19.125 C 37.163869 18.81386 37 18.277335 37 17.6875 C 37 17.097665 37.163869 16.59239 37.375 16.28125 C 37.586131 15.97011 37.779798 15.90625 37.90625 15.90625 z M 7.03125 27 L 42.96875 27 L 36.09375 46.09375 L 32.1875 46.09375 L 34.96875 32.1875 A 1.0001 1.0001 0 0 0 33.78125 31 A 1.0001 1.0001 0 0 0 33.03125 31.8125 L 30.1875 46.09375 L 26 46.09375 L 26 32 A 1.0001 1.0001 0 0 0 24.90625 30.96875 A 1.0001 1.0001 0 0 0 24.78125 31 A 1.0001 1.0001 0 0 0 24 32 L 24 46.09375 L 19.8125 46.09375 L 16.96875 31.8125 A 1.0001 1.0001 0 0 0 15.78125 31 A 1.0001 1.0001 0 0 0 15.03125 32.1875 L 17.8125 46.09375 L 13.90625 46.09375 L 7.03125 27 z"></path>
</svg>