<svg xmlns="http://www.w3.org/2000/svg" width="50" height="50" viewBox="0 0 50 50">
    <path style="text-indent:0;text-align:start;line-height:normal;text-transform:none;block-progression:tb;-inkscape-font-specification:Bitstream Vera Sans" d="M 28.90625 6 A 1.0001 1.0001 0 0 0 28.75 6.03125 L 16.71875 9.09375 A 1.0001 1.0001 0 0 0 16.6875 11.03125 C 16.76005 11.05101 17.634596 11.543362 18.09375 12.375 C 18.547165 13.196243 18.794572 14.348829 18.125 16.15625 C 17.454137 16.538493 16.789732 16.919488 16.1875 17.3125 C 13.793762 18.874634 12.31572 20.170527 11.46875 20.9375 C 10.633202 19.473406 7.990218 15.3125 2.78125 15.3125 C 2.4318699 15.3125 1.9339568 15.3475 1.53125 15.9375 C 1.3298966 16.232501 1.2669133 16.624845 1.3125 16.96875 C 1.358087 17.312655 1.4640619 17.646572 1.65625 17.96875 C 2.5324532 19.439171 4.125 22.419457 4.125 24.8125 C 4.125 27.19287 2.4695559 30.861184 1.53125 32.15625 C 1.2010084 32.61138 1.0033571 33.272478 1.28125 33.875 C 1.5591429 34.477522 2.2053509 34.75 2.75 34.75 C 6.5573558 34.75 9.0388808 32.903255 10.4375 31.09375 C 11.041882 30.311813 11.400751 29.579115 11.6875 28.9375 C 13.540807 30.608183 18.069849 34.195099 23.96875 35.59375 C 24.511143 36.600086 24.346374 37.685577 24.09375 38.75 C 23.959836 39.314242 23.795001 39.800395 23.78125 40.40625 C 23.77435 40.709178 23.80906 41.12992 24.125 41.5 C 24.440944 41.87008 24.938995 42 25.3125 42 L 29 42 A 1.0001 1.0001 0 0 0 29.5 41.84375 C 29.40197 41.90345 29.920575 41.653752 30.4375 41.375 C 30.954425 41.096248 31.59278 40.724473 32.25 40.1875 C 33.42971 39.223633 34.647683 37.736598 35 35.6875 C 41.358712 34.577275 45.377743 31.722421 47.875 28.03125 C 48.220375 27.519545 48.637606 26.945465 48.78125 26.15625 C 48.924894 25.367035 48.74841 24.452117 48.21875 23.5 C 47.507628 22.220182 45.971673 19.551367 42.9375 17.21875 C 41.310958 15.968294 39.242553 14.828302 36.65625 14.03125 C 36.236348 12.380329 34.498649 7.0927189 29.1875 6.03125 A 1.0001 1.0001 0 0 0 28.90625 6 z M 28.96875 8.03125 C 32.178049 8.76797 33.704488 11.670411 34.375 13.46875 C 32.679195 13.125778 30.809109 12.90625 28.71875 12.90625 C 25.811655 12.90625 22.96771 13.768137 20.4375 14.9375 C 20.601052 13.522301 20.348803 12.32102 19.84375 11.40625 C 19.641095 11.039194 19.390085 10.807585 19.15625 10.53125 L 28.96875 8.03125 z M 28.71875 14.90625 C 31.228662 14.90625 33.36029 15.20424 35.21875 15.6875 A 1.0001 1.0001 0 0 0 35.90625 15.90625 C 38.324195 16.626155 40.241328 17.645434 41.71875 18.78125 C 44.424827 20.861633 45.771872 23.214568 46.46875 24.46875 C 46.853088 25.159633 46.864106 25.497715 46.8125 25.78125 C 46.76089 26.064785 46.552375 26.411955 46.21875 26.90625 C 43.340455 31.16063 38.44319 34.1875 28.71875 34.1875 C 19.65648 34.1875 12.03125 26.5 12.03125 26.5 A 1.0001 1.0001 0 0 0 10.3125 26.96875 C 10.3125 26.96875 10.000381 28.419005 8.875 29.875 C 7.8475798 31.204255 6.1912198 32.439978 3.5 32.65625 C 4.7061087 30.776372 6.125 27.704378 6.125 24.8125 C 6.125 21.913004 4.6506808 19.218334 3.6875 17.5625 C 7.7666919 18.251177 10.40625 22.875 10.40625 22.875 A 1.0001 1.0001 0 0 0 12 23.125 C 12 23.125 14.104336 21.073229 17.28125 19 C 20.458164 16.926771 24.67945 14.90625 28.71875 14.90625 z M 38 22 C 36.895431 22 36 22.895431 36 24 C 36 25.10457 36.895431 26 38 26 C 39.104569 26 40 25.10457 40 24 C 40 22.895431 39.104569 22 38 22 z M 32.90625 35.96875 C 32.557659 37.12476 31.807243 37.965453 31 38.625 C 30.47597 39.053152 29.912013 39.38597 29.46875 39.625 C 29.15141 39.796126 28.966455 39.889875 28.75 40 L 25.875 40 C 25.92293 39.768223 25.93963 39.604771 26.03125 39.21875 C 26.231964 38.373052 26.45222 37.23585 26.21875 36.03125 C 27.031902 36.133719 27.866732 36.1875 28.71875 36.1875 C 30.215535 36.1875 31.594323 36.108926 32.90625 35.96875 z" color="#000" overflow="visible" enable-background="accumulate" font-family="Bitstream Vera Sans"></path>
</svg>