<svg xmlns="http://www.w3.org/2000/svg" width="50" height="50" viewBox="0 0 50 50">
    <path style="text-indent:0;text-align:start;line-height:normal;text-transform:none;block-progression:tb;-inkscape-font-specification:Bitstream Vera Sans" d="M 12.3125 1 C 10.381596 1 8.9461158 1.6439733 8.09375 2.65625 C 7.2413842 3.6685267 7 4.9258979 7 6 C 7 8.5551287 8.3816825 10.628759 10.28125 11.96875 C 10.86548 12.380877 11.489772 12.711841 12.15625 13 L 2 13 L 1 13 L 1 14 L 1 23 L 1 24 L 2 24 L 3 24 L 3 48 L 3 49 L 4 49 L 46 49 L 47 49 L 47 48 L 47 24 L 48 24 L 49 24 L 49 23 L 49 14 L 49 13 L 48 13 L 37.84375 13 C 38.510228 12.711841 39.13452 12.380877 39.71875 11.96875 C 41.618317 10.628759 43 8.5551287 43 6 C 43 4.9258979 42.758616 3.6685267 41.90625 2.65625 C 41.053884 1.6439733 39.618404 1 37.6875 1 C 35.693203 1 34.079698 1.8418392 32.875 3 C 31.670302 4.1581608 30.807788 5.6124822 30 7 C 29.192212 8.3875178 28.428031 9.7176518 27.625 10.625 C 26.821969 11.532348 26.084018 12 25 12 C 23.915982 12 23.178031 11.532348 22.375 10.625 C 21.571969 9.7176518 20.807788 8.3875178 20 7 C 19.192212 5.6124822 18.329698 4.1581608 17.125 3 C 15.920302 1.8418392 14.306797 1 12.3125 1 z M 12.3125 3 C 13.776703 3 14.778073 3.5331608 15.71875 4.4375 C 16.659427 5.3418392 17.488038 6.6375178 18.28125 8 C 19.074462 9.3624822 19.852656 10.782348 20.875 11.9375 C 20.89448 11.95951 20.91776 11.97818 20.9375 12 L 17 12 C 14.985734 12 12.902183 11.399009 11.40625 10.34375 C 9.9103175 9.2884909 9 7.8638713 9 6 C 9 5.2461021 9.1781158 4.4994733 9.625 3.96875 C 10.071884 3.4380267 10.802404 3 12.3125 3 z M 37.6875 3 C 39.197596 3 39.928116 3.4380267 40.375 3.96875 C 40.821884 4.4994733 41 5.2461021 41 6 C 41 7.8638713 40.089683 9.2884909 38.59375 10.34375 C 37.097817 11.399009 35.014266 12 33 12 L 29.0625 12 C 29.08224 11.97818 29.10552 11.95951 29.125 11.9375 C 30.147344 10.782348 30.925538 9.3624822 31.71875 8 C 32.511962 6.6375178 33.340573 5.3418392 34.28125 4.4375 C 35.221927 3.5331608 36.223297 3 37.6875 3 z M 3 15 L 19 15 L 19 22 L 3 22 L 3 15 z M 21 15 L 29 15 L 29 22.8125 A 1.0001 1.0001 0 0 0 29 22.90625 A 1.0001 1.0001 0 0 0 29 23 A 1.0001 1.0001 0 0 0 29 23.21875 L 29 47 L 21 47 L 21 23.1875 A 1.0001 1.0001 0 0 0 21 23 A 1.0001 1.0001 0 0 0 21 22.875 A 1.0001 1.0001 0 0 0 21 22.78125 L 21 15 z M 31 15 L 47 15 L 47 22 L 46 22 L 31 22 L 31 15 z M 5 24 L 19 24 L 19 47 L 5 47 L 5 24 z M 31 24 L 45 24 L 45 47 L 31 47 L 31 24 z" color="#000" overflow="visible" enable-background="accumulate" font-family="Bitstream Vera Sans"></path>
</svg>