<svg xmlns="http://www.w3.org/2000/svg" width="50" height="50" viewBox="0 0 50 50">
    <path style="text-indent:0;text-align:start;line-height:normal;text-transform:none;block-progression:tb;-inkscape-font-specification:Bitstream Vera Sans" d="M 17.84375 0 C 15.515712 -0.00051642378 13.969811 0.25195217 12.96875 0.53125 C 12.468219 0.67089891 12.095481 0.8165684 11.84375 0.9375 C 11.592019 1.0584316 11.40625 1.1875 11.40625 1.1875 L 11.0625 1.46875 L 11 1.875 C 11 1.875 10 9.8715332 10 15 C 10.0011 18.085883 11.521607 19.916914 12.875 21.03125 C 13.551697 21.588418 14.181371 22.004279 14.5625 22.34375 C 14.943629 22.683221 15 22.831172 15 23 C 14.99957 23.942635 14.75116 26.721169 14.5 29.8125 C 14.24884 32.903831 13.996923 36.368064 14 39 C 14 43.756225 14.326417 46.311872 15 47.90625 C 15.336792 48.703439 15.800436 49.295042 16.375 49.625 C 16.949564 49.954958 17.554273 49.999416 18 50 C 18.447959 50.0015 19.049083 49.9549 19.625 49.625 C 20.200917 49.295097 20.663128 48.704052 21 47.90625 C 21.673743 46.310646 22.002022 43.755775 22 39 C 22 36.369665 21.75027 32.903544 21.5 29.8125 C 21.24973 26.721456 21.000863 23.94544 21 23 C 20.999769 22.831143 21.05774 22.708402 21.4375 22.375 C 21.817259 22.041598 22.446221 21.615811 23.125 21.0625 C 24.482558 19.955879 26 18.12061 26 15 C 26 11.512057 25 1.90625 25 1.90625 L 24.9375 1.40625 L 24.53125 1.15625 C 24.53125 1.15625 23.909596 0.80402263 22.84375 0.53125 C 21.777904 0.25847737 20.172075 0.00051637286 17.84375 0 z M 30.8125 0 A 1.0001 1.0001 0 0 0 30 1 L 30 12 C 30.0011 12.701913 30.09276 21.003729 30.09375 23.15625 C 30.094595 24.079018 29.837683 27.870257 29.5625 31.8125 C 29.287317 35.754743 29 39.90825 29 42 C 29 45.026778 29.08035 46.793759 29.46875 48.03125 C 29.662949 48.649996 29.981719 49.185968 30.46875 49.53125 C 30.955781 49.876532 31.515937 49.968112 32 49.96875 C 33.108976 49.968022 34.536659 49.242535 35.46875 47.4375 C 36.400841 45.632465 37.000509 42.771162 37 38 C 36.999474 35.316944 36.481892 33.224645 35.96875 31.59375 C 35.455608 29.962855 34.99964 28.78528 35 28 C 34.999246 26.60351 36.12383 24.590151 37.40625 22.25 C 38.68867 19.909849 40.060286 17.175875 40.0625 14.0625 C 40.0609 12.320261 39.788219 9.6956185 38.5625 7.03125 C 37.336781 4.3668815 35.141002 1.6943579 31.40625 0.09375 A 1.0001 1.0001 0 0 0 30.90625 0 A 1.0001 1.0001 0 0 0 30.8125 0 z M 17.84375 2 C 18.264038 2.0000932 18.631975 2.0150933 19 2.03125 L 19 12 A 1.0001 1.0001 0 1 0 21 12 L 21 2.21875 C 21.545442 2.2975982 22.021591 2.3783052 22.375 2.46875 C 22.928262 2.6103414 22.916145 2.6207825 23.0625 2.6875 C 23.14596 3.5172784 24 12.060036 24 15 C 24 17.53039 23.018192 18.599371 21.875 19.53125 C 21.303404 19.997189 20.68246 20.38559 20.125 20.875 C 19.56754 21.36441 18.998731 22.071357 19 23 C 19.0011 24.24656 19.25077 26.890544 19.5 29.96875 C 19.74923 33.046956 20 36.499335 20 39 C 20.002 43.651225 19.601257 46.071104 19.15625 47.125 C 18.933747 47.651948 18.755552 47.831466 18.625 47.90625 C 18.494448 47.981034 18.316541 48.001035 18 48 C 17.682727 47.999584 17.505999 47.981479 17.375 47.90625 C 17.244001 47.831021 17.066208 47.651561 16.84375 47.125 C 16.398833 46.071878 16 43.651775 16 39 C 15.997077 36.499936 16.24991 33.046919 16.5 29.96875 C 16.75009 26.890581 16.99943 24.247365 17 23 C 17 22.071828 16.431058 21.370279 15.875 20.875 C 15.318942 20.379721 14.698053 19.971832 14.125 19.5 C 12.978893 18.556336 12.000893 17.488117 12 15 C 12 10.417961 12.836147 3.4900056 12.9375 2.65625 C 13.084601 2.5949113 13.217325 2.5476168 13.5 2.46875 C 13.862794 2.36753 14.371864 2.2736471 15 2.1875 L 15 12 A 1.0001 1.0001 0 1 0 17 12 L 17 2.03125 C 17.275313 2.0222411 17.537089 1.999932 17.84375 2 z M 32 2.875 C 34.265561 4.2473553 35.880744 5.9542331 36.75 7.84375 C 37.811031 10.150132 38.0611 12.537739 38.0625 14.0625 C 38.0607 16.575125 36.91083 18.991901 35.65625 21.28125 C 34.40167 23.570599 32.998754 25.69049 33 28 C 32.99936 29.39672 33.544392 30.671395 34.03125 32.21875 C 34.518108 33.766105 34.999526 35.578056 35 38 C 35.000491 42.594838 34.374659 45.200535 33.6875 46.53125 C 33.000341 47.861965 32.415024 47.968478 32 47.96875 C 31.725063 47.968388 31.655281 47.92772 31.625 47.90625 C 31.59472 47.88478 31.491051 47.80725 31.375 47.4375 C 31.142898 46.697991 31 44.973222 31 42 C 31 40.09175 31.287683 35.905757 31.5625 31.96875 C 31.837317 28.031743 32.094905 24.418482 32.09375 23.15625 C 32.092737 20.946771 32.000851 12.520087 32 12 L 32 2.875 z" color="#000" overflow="visible" enable-background="accumulate" font-family="Bitstream Vera Sans"></path>
</svg>