<svg xmlns="http://www.w3.org/2000/svg" width="50" height="50" viewBox="0 0 50 50">
    <path style="text-indent:0;text-align:start;line-height:normal;text-transform:none;block-progression:tb;-inkscape-font-specification:Bitstream Vera Sans" d="M 26.78125 3 C 25.999378 3.0059849 25.216442 3.0505966 24.40625 3.125 C 17.909598 3.7216154 12.580348 6.7360929 8.875 10.3125 C 5.1696525 13.888907 3 17.930717 3 21.125 C 3 22.870811 3.767551 24.345249 5.03125 25.25 C 6.294949 26.154751 7.9491514 26.587396 9.90625 26.8125 C 12.740796 27.138528 16.256958 27.019472 20.1875 26.78125 C 19.852444 31.368332 18.757819 38.679497 15.65625 43.34375 C 15.117688 44.153085 14.794266 44.943103 15.09375 45.78125 C 15.243492 46.200323 15.603183 46.561058 15.96875 46.75 C 16.334317 46.938942 16.707261 47 17.09375 47 L 25.46875 47 L 31.65625 47 C 32.229147 47 32.825001 46.870492 33.25 46.46875 C 33.674999 46.067008 33.823752 45.586663 33.9375 45.15625 C 34.00637 44.896961 34.661047 42.642056 34.90625 39.125 C 35.14003 35.771787 35.030772 31.16108 33.84375 25.59375 C 36.628775 25.187971 38.997242 24.66412 40.9375 23.9375 C 42.821585 23.231916 44.318896 22.329937 45.375 21.125 C 46.431104 19.920063 47 18.3833 47 16.6875 C 47 13.433786 44.501735 9.8691407 40.5 7.125 C 37.498698 5.0668945 33.592655 3.496308 29.09375 3.09375 C 28.343933 3.026657 27.563122 2.9940151 26.78125 3 z M 26.8125 5 C 31.866069 4.9995904 36.196987 6.6019669 39.375 8.78125 C 43.007015 11.271859 45 14.550214 45 16.6875 C 45 17.9727 44.629677 18.951468 43.875 19.8125 C 43.120323 20.673532 41.93704 21.430709 40.25 22.0625 C 36.875921 23.326082 31.624306 24.031463 24.71875 24.46875 C 18.888841 24.838315 13.687803 25.222291 10.125 24.8125 C 8.3435986 24.607604 7.000051 24.206749 6.1875 23.625 C 5.374949 23.043251 5 22.360189 5 21.125 C 5 18.920283 6.8285975 15.052343 10.25 11.75 C 13.671402 8.4476571 18.611402 5.6431346 24.59375 5.09375 C 25.343433 5.0249034 26.090562 5.0000585 26.8125 5 z M 31.84375 25.875 C 33.013303 31.304376 33.1302 35.787785 32.90625 39 C 32.673203 42.342694 32.114132 44.226539 32 44.65625 C 31.914748 44.978837 31.833751 45.038992 31.875 45 C 31.846239 45.005131 31.791481 45 31.65625 45 L 25.46875 45 L 17.09375 45 C 17.07212 45 17.08097 45.0011 17.0625 45 C 17.07829 44.99 17.01546 44.883885 17.3125 44.4375 C 20.87779 39.075888 21.90424 31.369724 22.21875 26.65625 C 23.085277 26.600053 23.945984 26.525661 24.84375 26.46875 C 27.397541 26.307034 29.723537 26.124505 31.84375 25.875 z" color="#000" overflow="visible" enable-background="accumulate" font-family="Bitstream Vera Sans"></path>
</svg>