<svg xmlns="http://www.w3.org/2000/svg" viewBox="0 0 50 50" enable-background="new 0 0 50 50">
    <path style="text-indent:0;text-align:start;line-height:normal;text-transform:none;block-progression:tb;-inkscape-font-specification:Bitstream Vera Sans" d="M 31.21875 0 A 1.0001 1.0001 0 0 0 30.8125 0.1875 C 30.8125 0.1875 30.339836 0.54265051 29.125 1.65625 L 30.46875 3.125 C 31.211718 2.4439456 31.234624 2.4808454 31.4375 2.3125 C 31.702916 2.5074132 32.652853 3.267042 34 4.375 L 32.90625 5.5 L 34.3125 6.90625 L 36.21875 5 A 1.0001 1.0001 0 0 0 36.15625 3.53125 C 33.435272 1.2133802 31.96875 0.1875 31.96875 0.1875 A 1.0001 1.0001 0 0 0 31.3125 0 A 1.0001 1.0001 0 0 0 31.21875 0 z M 26.78125 1.78125 A 1.0001 1.0001 0 0 0 26.28125 3.5 L 46.5 23.71875 A 1.0054782 1.0054782 0 1 0 47.90625 22.28125 L 27.71875 2.09375 A 1.0001 1.0001 0 0 0 26.875 1.78125 A 1.0001 1.0001 0 0 0 26.78125 1.78125 z M 23.59375 4.09375 A 1.0001 1.0001 0 0 0 23.09375 5.8125 L 44.1875 26.90625 A 1.0001 1.0001 0 1 0 45.59375 25.5 L 24.5 4.40625 A 1.0001 1.0001 0 0 0 23.6875 4.09375 A 1.0001 1.0001 0 0 0 23.59375 4.09375 z M 38.5 6.1875 A 1.0001 1.0001 0 0 0 37.90625 6.5 L 35.90625 8.5 L 37.3125 9.90625 L 38.625 8.59375 C 39.094427 9.0322346 39.544629 9.4508791 40.09375 10 L 41.375 11.3125 L 40.09375 12.59375 L 41.5 14 L 43.5 12 A 1.0001 1.0001 0 0 0 43.5 10.59375 L 41.5 8.59375 C 40.7 7.79375 39.991685 7.0732297 39.25 6.4375 A 1.0001 1.0001 0 0 0 38.59375 6.1875 A 1.0001 1.0001 0 0 0 38.5 6.1875 z M 20.8125 6.875 A 1.0001 1.0001 0 0 0 20.28125 8.59375 L 41.40625 29.71875 A 1.0054782 1.0054782 0 1 0 42.8125 28.28125 L 21.71875 7.1875 A 1.0001 1.0001 0 0 0 21 6.875 A 1.0001 1.0001 0 0 0 20.8125 6.875 z M 18.09375 9.59375 A 1.0001 1.0001 0 0 0 17.59375 11.3125 L 38.6875 32.40625 C 39.243905 32.962655 39.735738 34.032076 40.15625 35.375 C 40.576762 36.717924 40.956912 38.306091 41.5 39.84375 C 42.043088 41.381409 42.743992 42.890857 43.9375 44.0625 C 45.131008 45.234143 46.832051 46 49 46 A 1.0001 1.0001 0 1 0 49 44 C 47.267949 44 46.197117 43.493982 45.34375 42.65625 C 44.490383 41.818518 43.869412 40.587341 43.375 39.1875 C 42.880588 37.787659 42.513863 36.222701 42.0625 34.78125 C 41.611137 33.339799 41.087345 31.993595 40.09375 31 L 19 9.90625 A 1.0001 1.0001 0 0 0 18.1875 9.59375 A 1.0001 1.0001 0 0 0 18.09375 9.59375 z M 16.90625 12.96875 C 14.807972 14.96711 12.995115 16.692385 11.28125 18.40625 C 7.2657065 22.421794 7.01963 26.537624 7.4375 29.75 C 7.646435 31.356188 7.9982521 32.767995 8.09375 33.84375 C 8.189248 34.919505 8.070728 35.523022 7.59375 36 C 4.6330337 38.960716 0.34375 42.75 0.34375 42.75 L 1.65625 44.25 C 1.65625 44.25 5.9607163 40.445534 9 37.40625 C 10.023022 36.383228 10.179502 34.974245 10.0625 33.65625 C 9.9454979 32.338255 9.597315 30.968812 9.40625 29.5 C 9.02412 26.562376 9.1342935 23.396956 12.71875 19.8125 C 14.404885 18.126365 16.179528 16.43914 18.28125 14.4375 L 16.90625 12.96875 z M 45.5625 13.40625 A 1.0001 1.0001 0 0 0 45 13.6875 L 43.09375 15.59375 L 44.5 17 L 45.59375 15.90625 C 46.729036 17.305818 47.502312 18.294231 47.6875 18.5625 C 47.519155 18.765376 47.556054 18.788282 46.875 19.53125 L 48.34375 20.875 C 49.457349 19.660164 49.8125 19.1875 49.8125 19.1875 A 1.0001 1.0001 0 0 0 49.84375 18.03125 C 49.84375 18.03125 48.794524 16.480256 46.46875 13.75 A 1.0001 1.0001 0 0 0 45.5625 13.40625 z M 21.09375 17.28125 L 19.90625 18.5 C 18.693771 19.712479 18.693771 21.693771 19.90625 22.90625 C 21.118729 24.118729 23.100021 24.118729 24.3125 22.90625 L 25.5 21.71875 L 24.09375 20.28125 L 22.90625 21.5 C 22.518729 21.887521 21.700021 21.887521 21.3125 21.5 C 20.924979 21.112479 20.924979 20.293771 21.3125 19.90625 L 22.5 18.71875 L 21.09375 17.28125 z M 28.28125 24.5 L 27 25.78125 C 25.787521 26.993729 25.787521 29.006271 27 30.21875 C 28.212479 31.431229 30.193771 31.431229 31.40625 30.21875 L 32.71875 28.90625 L 31.28125 27.5 L 30 28.78125 C 29.612479 29.168771 28.793771 29.168771 28.40625 28.78125 C 28.018729 28.393729 28.018729 27.606271 28.40625 27.21875 L 29.71875 25.90625 L 28.28125 24.5 z M 35.375 31.71875 C 33.079302 34.214073 31.375619 35.999381 30.09375 37.28125 C 26.456494 40.918506 23.296244 41.018474 20.375 40.625 C 18.914378 40.428263 17.529657 40.063251 16.21875 39.9375 C 14.907843 39.811749 13.523022 39.976978 12.5 41 A 1.0001 1.0001 0 0 0 12.46875 41 C 9.5402731 44.029459 5.75 48.34375 5.75 48.34375 L 7.25 49.65625 C 7.25 49.65625 11.034727 45.376791 13.90625 42.40625 C 14.383228 41.929272 14.964032 41.835126 16.03125 41.9375 C 17.098468 42.039874 18.491872 42.377987 20.09375 42.59375 C 23.297506 43.025276 27.437256 42.781494 31.5 38.71875 C 32.818131 37.400619 34.539448 35.567177 36.84375 33.0625 L 35.375 31.71875 z"></path>
</svg>