<svg xmlns="http://www.w3.org/2000/svg" width="50" height="50" viewBox="0 0 50 50">
    <path style="text-indent:0;text-align:start;line-height:normal;text-transform:none;block-progression:tb;-inkscape-font-specification:Bitstream Vera Sans" d="M 20.90625 0 C 20.757093 0.010635317 20.612647 0.034922535 20.4375 0.09375 C 20.087205 0.21140493 19.80381 0.46337618 19.625 0.71875 C 19.44619 0.97412382 19.336497 1.2311205 19.21875 1.53125 C 18.83431 2.5087933 17.879776 5.3904597 17.40625 6.75 C 17.388099 6.802114 17.391558 6.8542106 17.375 6.90625 A 1.0001 1.0001 0 0 0 17.34375 6.96875 L 13.53125 16.21875 L 13.46875 16.3125 A 1.0021949 1.0021949 0 0 0 13.40625 16.5 L 5.09375 36.53125 A 1.0001 1.0001 0 0 0 5.0625 36.625 L 0.0625 48.625 A 1.0001 1.0001 0 0 0 1.375 49.9375 L 42.71875 32.84375 A 1.0097184 1.0097184 0 0 0 42.8125 32.8125 C 43.796359 32.497032 47.249326 31.304557 48.15625 31 C 48.738425 30.804498 49.343785 30.509091 49.71875 29.875 C 50.093715 29.240909 50.061439 28.418989 49.75 27.6875 C 48.623807 25.042899 45.813435 16.68947 39.59375 10.46875 C 33.566829 4.4397664 25.754313 1.2019312 22.125 0.21875 C 21.722887 0.11004039 21.35372 -0.031905951 20.90625 0 z M 21.21875 2 C 21.19944 2.025043 21.21345 2.044996 21.625 2.15625 C 24.861687 3.0330688 32.524421 6.2099836 38.1875 11.875 C 43.985815 17.67428 46.666443 25.557351 47.90625 28.46875 C 48.070811 28.855261 47.99728 28.848341 48 28.84375 C 48.0027 28.83915 47.890075 28.973252 47.53125 29.09375 C 46.574368 29.415083 43.092842 30.624627 42.21875 30.90625 A 1.0097184 1.0097184 0 0 0 42.15625 30.9375 C 42.16135 30.9388 42.16395 30.90932 42.09375 30.71875 C 41.153421 28.175423 38.510143 22.011174 33.28125 16.78125 C 28.223548 11.722516 22.280349 9.0806664 19.59375 8.0625 C 19.345203 7.9686873 19.217595 7.8995128 19.15625 7.875 C 19.161009 7.8503415 19.208204 7.7632956 19.21875 7.71875 A 1.0001 1.0001 0 0 0 19.3125 7.40625 C 19.800974 6.0037903 20.80019 3.0277067 21.09375 2.28125 C 21.15686 2.1203927 21.18463 2.0641259 21.21875 2 z M 18.375 9.75 C 18.548713 9.8210874 18.721793 9.8796728 18.875 9.9375 C 21.402401 10.895334 27.128702 13.440234 31.875 18.1875 C 36.782107 23.095576 39.337079 29.052827 40.21875 31.4375 C 40.245162 31.509205 40.281706 31.586146 40.3125 31.65625 L 25.65625 37.71875 C 25.857606 37.178242 26 36.608344 26 36 C 26 33.250421 23.749579 31 21 31 C 18.250421 31 16 33.250421 16 36 C 16 37.996417 17.203792 39.700247 18.90625 40.5 L 2.875 47.125 L 6 39.59375 C 6.7353852 40.440387 7.7997584 41 9 41 C 11.19666 41 13 39.197736 13 37 C 13 34.802264 11.19666 33 9 33 C 8.904981 33 8.8120595 33.024429 8.71875 33.03125 L 12.21875 24.59375 C 13.316735 26.047041 15.046358 27 17 27 C 20.301947 27 23 24.302993 23 21 C 23 17.697007 20.301947 15 17 15 C 16.724802 15 16.4531 15.026781 16.1875 15.0625 L 18.375 9.75 z M 17 17 C 19.222053 17 21 18.776993 21 21 C 21 23.223007 19.222053 25 17 25 C 15.201118 25 13.69758 23.834668 13.1875 22.21875 L 15.1875 17.4375 C 15.730453 17.161704 16.347321 17 17 17 z M 31 21 C 28.80334 21 27 22.802264 27 25 C 27 25.32366 27.020308 25.635885 27.09375 25.9375 C 25.834066 26.84777 25 28.336448 25 30 C 25 32.749579 27.250421 35 30 35 C 32.749579 35 35 32.749579 35 30 C 35 29.029473 34.702494 28.144132 34.21875 27.375 C 34.70998 26.705019 35 25.886696 35 25 C 35 22.802264 33.19666 21 31 21 z M 31 23 C 32.11534 23 33 23.883736 33 25 C 33 25.3091 32.938096 25.615374 32.8125 25.875 C 32.007131 25.319482 31.046587 25 30 25 C 29.656303 25 29.324678 25.026845 29 25.09375 C 28.998829 25.062483 29 25.031796 29 25 C 29 23.883736 29.88466 23 31 23 z M 30 27 C 30.80981 27 31.525207 27.330275 32.0625 27.84375 A 1.0083877 1.0083877 0 0 0 32.34375 28.125 C 32.753469 28.637635 33 29.285895 33 30 C 33 31.668699 31.668699 33 30 33 C 28.331301 33 27 31.668699 27 30 C 27 28.880932 27.602298 27.922074 28.5 27.40625 A 1.0001 1.0001 0 0 0 29.03125 27.15625 C 29.334753 27.054178 29.6601 27 30 27 z M 21 33 C 22.668699 33 24 34.331301 24 36 C 24 37.668699 22.668699 39 21 39 C 19.331301 39 18 37.668699 18 36 C 18 34.331301 19.331301 33 21 33 z M 9 35 C 10.11534 35 11 35.883736 11 37 C 11 38.116264 10.11534 39 9 39 C 7.9379669 39 7.079099 38.196582 7 37.15625 L 7.6875 35.5 C 8.0380943 35.190647 8.4915502 35 9 35 z" color="#000" overflow="visible" enable-background="accumulate" font-family="Bitstream Vera Sans"></path>
</svg>