<svg xmlns="http://www.w3.org/2000/svg" width="50" height="50" viewBox="0 0 50 50">
    <path style="text-indent:0;text-align:start;line-height:normal;text-transform:none;block-progression:tb;-inkscape-font-specification:Bitstream Vera Sans" d="M 21.8125 10 A 1.001098 1.001098 0 0 0 22 12 L 24 12 L 24 13 L 26 13 L 26 12 L 28 12 A 1.0001 1.0001 0 1 0 28 10 L 22 10 A 1.0001 1.0001 0 0 0 21.90625 10 A 1.001098 1.001098 0 0 0 21.8125 10 z M 25 14 C 12.861562 14 3 23.861562 3 36 L 2 36 C 0.9069372 36 0 36.906937 0 38 L 0 42 C 0 43.093063 0.9069372 44 2 44 L 48 44 C 49.093063 44 50 43.093063 50 42 L 50 38 C 50 36.906937 49.093063 36 48 36 L 47 36 C 47 23.861562 37.138438 14 25 14 z M 25 16 C 36.057562 16 45 24.942438 45 36 L 5 36 C 5 24.942438 13.942438 16 25 16 z M 2 38 L 48 38 L 48 42 L 2 42 L 2 38 z" color="#000" overflow="visible" enable-background="accumulate" font-family="Bitstream Vera Sans"></path>
</svg>