<svg xmlns="http://www.w3.org/2000/svg" width="50" height="50" viewBox="0 0 50 50">
    <path style="text-indent:0;text-align:start;line-height:normal;text-transform:none;block-progression:tb;-inkscape-font-specification:Bitstream Vera Sans" d="M 38.875 1 C 22.240571 1 16.468319 4.7730151 13.96875 7.3125 C 13.701885 7.5835914 13.510297 7.9138152 13.375 8.25 C 11.628566 9.0343237 9.4034874 10.796524 7.5 13.53125 C 5.6105612 16.245792 4.1063754 19.917612 4.03125 24.40625 A 1.0001 1.0001 0 0 0 3.96875 25 C 3.96875 25 4.0062194 25.095217 4.0625 25.25 C 4.123608 30.426757 5.1474302 36.445554 8.5625 41.3125 C 12.086094 46.334108 18.1617 50 27.75 50 C 31.446675 50 34.522384 49.285405 36.5625 48.0625 C 37.582558 47.451048 38.375025 46.68792 38.75 45.71875 C 39.038654 44.972689 38.924761 44.151653 38.59375 43.375 C 39.805517 41.882666 40.309398 40.336033 39.6875 39.125 C 39.334335 38.437276 38.487791 37.989816 37.6875 38.09375 C 36.887209 38.197684 36.194844 38.669859 35.53125 39.4375 C 34.837133 40.241693 31.338436 44 26 44 C 23.500934 44 21.559241 42.526861 20.15625 40.46875 C 18.753259 38.410639 18 35.785322 18 34 C 18 29.172427 21.331506 26.266347 22.8125 25.1875 C 23.259111 26.334799 23.972327 27.613508 25.0625 28.84375 C 27.038256 31.073357 30.281909 33 35 33 A 1.0001 1.0001 0 1 0 35 31 C 30.809091 31 28.211744 29.392393 26.5625 27.53125 C 25.110662 25.892876 24.454859 24.017305 24.28125 23.03125 C 25.426523 22.876352 26.506132 22.705245 27.53125 22.46875 C 28.680197 23.825826 32.449192 27.649078 38.125 27 A 1.0077822 1.0077822 0 0 0 37.875 25 C 33.934396 25.450642 31.102757 23.257136 29.71875 21.875 C 37.748935 19.414988 41.777307 14.593574 44.21875 11.625 C 45.060367 10.601365 45.636395 9.3316776 45.96875 8.15625 C 46.134927 7.5685362 46.24857 6.9899625 46.28125 6.46875 C 46.31393 5.9475375 46.30479 5.4773332 46.0625 4.96875 C 45.755809 4.3250646 45.074429 3.9895518 44.53125 3.90625 C 44.149948 3.847774 43.83537 3.917943 43.5 3.96875 C 43.52779 3.7967831 43.600525 3.6606783 43.59375 3.46875 C 43.57555 2.9530774 43.364658 2.3390463 42.90625 1.90625 C 42.000365 1.0513206 40.763635 1 38.875 1 z M 38.875 3 C 40.624365 3 41.477135 3.3239294 41.53125 3.375 C 41.60084 3.440704 41.59002 3.425454 41.59375 3.53125 C 41.59745 3.6370462 41.58351 3.856401 41.5 4.0625 C 41.332986 4.474698 41.03125 4.84375 41.03125 4.84375 A 1.0001 1.0001 0 0 0 42.25 6.375 C 42.25 6.375 42.84436 6.0754122 43.46875 5.9375 C 43.780945 5.868544 44.07971 5.853677 44.21875 5.875 C 44.25351 5.8803307 44.239522 5.8747669 44.25 5.875 C 44.252842 5.9023013 44.298808 6.0637187 44.28125 6.34375 C 44.26018 6.6797875 44.165073 7.1204638 44.03125 7.59375 C 43.763605 8.5403224 43.283883 9.6183855 42.6875 10.34375 C 39.693384 13.984322 35.060559 19.773303 23.46875 21.15625 C 23.162322 21.19278 22.098048 20.75522 20.96875 19.75 C 19.839452 18.74478 18.616312 17.303267 17.59375 15.75 C 16.571188 14.196733 15.727871 12.529131 15.34375 11.1875 C 15.15169 10.516685 15.0985 9.9258848 15.125 9.5 C 15.1515 9.0741152 15.234789 8.8299318 15.375 8.6875 C 17.509431 6.5189849 22.535429 3 38.875 3 z M 36.5 6 C 35.671573 6 35 6.6715729 35 7.5 C 35 8.3284271 35.671573 9 36.5 9 C 37.328427 9 38 8.3284271 38 7.5 C 38 6.6715729 37.328427 6 36.5 6 z M 13.1875 10.625 C 13.195512 10.619797 13.210766 10.630154 13.21875 10.625 C 13.274175 10.983932 13.329658 11.342079 13.4375 11.71875 C 13.906848 13.358057 14.799937 15.163267 15.90625 16.84375 C 17.012563 18.524233 18.317079 20.085782 19.625 21.25 C 20.489311 22.019348 21.345847 22.6371 22.25 22.9375 C 22.256577 23.007811 22.240427 23.082405 22.25 23.15625 A 1.001098 1.001098 0 0 0 22.03125 23.28125 C 20.60485 24.252233 16 27.777882 16 34 C 16 36.307678 16.851241 39.175111 18.5 41.59375 C 20.148759 44.012389 22.706066 46 26 46 C 32.263564 46 36.199367 41.713807 37.03125 40.75 C 37.472913 40.239087 37.832552 40.114438 37.9375 40.09375 C 37.99083 40.273317 37.99998 41.30888 36.78125 42.5625 A 1.0001 1.0001 0 0 0 36.65625 43.84375 C 37.014826 44.351482 37.020712 44.623389 36.875 45 C 36.729288 45.376611 36.306442 45.879077 35.53125 46.34375 C 33.980866 47.273095 31.178325 48 27.75 48 C 23.284063 48 19.739138 47.195136 16.90625 45.84375 C 17.377857 45.544343 17.894062 45.197091 18.46875 44.65625 A 1.0001 1.0001 0 0 0 17.78125 42.90625 A 1.0001 1.0001 0 0 0 17.09375 43.1875 C 16.365611 43.872753 15.737191 44.282604 15.3125 44.5 C 14.984131 44.66809 14.929263 44.670012 14.875 44.6875 C 12.945 43.427607 11.402597 41.887931 10.1875 40.15625 C 9.9485307 39.815686 9.7458836 39.448507 9.53125 39.09375 C 10.944372 39.25633 12.912793 39.150585 14.6875 37.71875 A 1.0001 1.0001 0 0 0 13.875 35.9375 A 1.0001 1.0001 0 0 0 13.4375 36.15625 C 11.239378 37.929698 8.375 36.8125 8.375 36.8125 A 1.0040202 1.0040202 0 0 0 8.3125 36.78125 C 7.051362 33.921885 6.4045412 30.807512 6.15625 27.8125 C 7.562357 28.724422 9.8122359 29.4375 13.375 29.4375 A 1.0001 1.0001 0 1 0 13.375 27.4375 C 9.633603 27.4375 7.7820328 26.571228 6.875 25.84375 C 6.4214836 25.480011 6.1831195 25.165889 6.0625 24.9375 C 6.044823 24.904029 6.0431404 24.901317 6.03125 24.875 C 6.0311217 24.83378 6.031246 24.791109 6.03125 24.75 C 6.03125 20.539902 7.3872372 17.152881 9.125 14.65625 C 10.428322 12.783777 11.968045 11.416966 13.1875 10.625 z" color="#000" overflow="visible" enable-background="accumulate" font-family="Bitstream Vera Sans"></path>
</svg>