<svg xmlns="http://www.w3.org/2000/svg" viewBox="0 0 50 50" enable-background="new 0 0 50 50">
    <path style="text-indent:0;text-align:start;line-height:normal;text-transform:none;block-progression:tb;-inkscape-font-specification:Bitstream Vera Sans" d="M 22.40625 2.75 C 22.092998 2.742714 21.790571 2.7973975 21.5 2.90625 C 20.918858 3.1239549 20.427419 3.5574888 20.15625 4.15625 L 17.6875 9.75 A 1.0001 1.0001 0 0 0 17.59375 9.90625 L 2.21875 43.78125 C 1.7779236 44.752851 2.0454222 45.837324 2.6875 46.5 C 3.3295778 47.162676 4.4210974 47.47244 5.40625 47.0625 L 40.625 32.40625 A 1.0001 1.0001 0 0 0 40.96875 32.1875 L 46.5 30 C 47.781041 29.467797 48.363883 27.929597 47.71875 26.6875 C 40.023706 11.840796 27.452961 4.9163554 23.34375 2.96875 C 23.04358 2.8265417 22.719502 2.757286 22.40625 2.75 z M 22.1875 4.75 C 22.28144 4.7187889 22.39534 4.7316666 22.5 4.78125 C 26.378789 6.6196446 38.567794 13.314454 45.96875 27.59375 C 46.06856 27.78591 45.94857 28.02313 45.75 28.125 L 43.71875 28.9375 C 43.827136 28.34029 43.903774 27.678053 43.84375 27 C 43.73704 25.794573 43.062479 24.419637 41.59375 23.875 C 39.943569 23.263135 39.378218 22.800544 39.15625 22.40625 C 38.934282 22.011956 38.90625 21.376032 38.90625 20.1875 C 38.90625 19.260719 38.536986 18.43461 38 17.9375 C 37.463014 17.44039 36.857055 17.21805 36.34375 17.03125 C 35.830445 16.84445 35.390903 16.680352 35.15625 16.53125 C 34.921597 16.382148 34.881802 16.357951 34.84375 16.09375 C 34.641638 14.695716 34.21942 13.486285 33.1875 12.71875 C 32.15558 11.951215 30.795477 11.736906 28.90625 11.75 C 28.053843 11.7561 27.867059 11.616918 27.625 11.3125 C 27.382941 11.008082 27.136173 10.367296 26.8125 9.4375 C 26.54534 8.6709621 26.246175 8.0517232 25.8125 7.5625 C 25.378825 7.0732768 24.786738 6.7436477 24.1875 6.625 C 23.588262 6.5063523 23.013905 6.53336 22.375 6.625 C 22.014466 6.6767125 21.567534 6.7614998 21.15625 6.84375 L 21.96875 4.96875 C 22.019581 4.8565112 22.09356 4.7812111 22.1875 4.75 z M 23.34375 8.5625 C 23.539959 8.5531125 23.693869 8.5702613 23.8125 8.59375 C 24.049762 8.640727 24.138925 8.679192 24.3125 8.875 C 24.486075 9.070808 24.71916 9.4672879 24.9375 10.09375 C 25.249827 10.990954 25.468059 11.814918 26.0625 12.5625 C 26.656941 13.310082 27.670657 13.758876 28.90625 13.75 C 30.624023 13.73809 31.55167 13.979035 32 14.3125 C 32.44833 14.645965 32.703112 15.186034 32.875 16.375 C 32.995448 17.211299 33.538371 17.897102 34.09375 18.25 C 34.649129 18.602898 35.19543 18.73855 35.65625 18.90625 C 36.11707 19.07395 36.482455 19.24536 36.65625 19.40625 C 36.830045 19.56714 36.90625 19.701781 36.90625 20.1875 C 36.90625 21.336968 36.82897 22.349544 37.40625 23.375 C 37.983532 24.400456 39.085431 25.074865 40.90625 25.75 C 41.651521 26.026363 41.77746 26.438677 41.84375 27.1875 C 41.91004 27.936323 41.735325 28.906704 41.53125 29.65625 A 1.0001 1.0001 0 0 0 41.46875 29.84375 L 40.6875 30.15625 C 34.082711 17.218992 23.117317 11.366738 19.84375 9.84375 L 20.21875 9 A 1.002073 1.002073 0 0 0 20.59375 9 C 21.820554 8.7667744 22.755123 8.5906624 23.34375 8.5625 z M 18.96875 11.65625 C 21.147452 12.611782 32.100473 17.936898 38.8125 31 L 4.625 45.21875 C 4.3941526 45.31481 4.2544222 45.258574 4.125 45.125 C 3.9955778 44.991426 3.9280764 44.852399 4.03125 44.625 L 18.96875 11.65625 z M 19.0625 17.375 A 1.0001 1.0001 0 0 0 18.5625 19.125 L 32.34375 31.15625 A 1.0001 1.0001 0 1 0 33.65625 29.65625 L 19.90625 17.625 A 1.0001 1.0001 0 0 0 19.0625 17.375 z M 14.9375 24.40625 A 1.0001 1.0001 0 0 0 14.46875 26.15625 L 24.625 34.96875 A 1.0083877 1.0083877 0 1 0 25.9375 33.4375 L 15.78125 24.65625 A 1.0001 1.0001 0 0 0 14.9375 24.40625 z M 12.21875 31.4375 A 1.0001 1.0001 0 0 0 11.75 33.1875 L 17.40625 38.1875 A 1.0001 1.0001 0 1 0 18.71875 36.6875 L 13.0625 31.6875 A 1.0001 1.0001 0 0 0 12.21875 31.4375 z" color="#000" overflow="visible" enable-background="accumulate" font-family="Bitstream Vera Sans"></path>
</svg>