<svg xmlns="http://www.w3.org/2000/svg" viewBox="0 0 50 50" enable-background="new 0 0 50 50">
    <path style="text-indent:0;text-align:start;line-height:normal;text-transform:none;block-progression:tb;-inkscape-font-specification:Bitstream Vera Sans" d="M 8.90625 -0.03125 A 1.0001 1.0001 0 0 0 8.78125 0 A 1.0001 1.0001 0 0 0 8 1 C 8 4.2207925 9.4517254 7.2419258 11.59375 9.96875 C 11.250919 10.150133 10.867434 10.360868 10.46875 10.6875 C 9.2261009 11.705574 8 13.591886 8 16.6875 C 8 21.075219 11.733014 25.294223 17.53125 27.40625 C 23.329486 29.518277 31.312173 29.543791 40.21875 25.5 A 1.0001 1.0001 0 0 0 40.46875 23.875 C 40.045058 23.485203 39.430166 22.502307 38.71875 21.1875 C 38.007334 19.872693 37.166453 18.21852 36.0625 16.40625 C 33.854593 12.78171 30.600961 8.5189068 25.25 4.96875 C 23.12346 3.5599175 21.151329 2.9985371 19.4375 3.03125 C 17.723671 3.063963 16.26694 3.6980322 15.15625 4.59375 C 14.04556 5.4894678 13.255077 6.5985807 12.75 7.65625 C 12.699032 7.7629804 12.661709 7.8657276 12.625 7.96875 C 11.014053 5.7033633 10 3.3299154 10 1 A 1.0001 1.0001 0 0 0 8.90625 -0.03125 z M 19.5 4.96875 C 20.758046 4.948338 22.28279 5.3838325 24.15625 6.625 C 29.205289 9.9748432 32.226657 13.96204 34.34375 17.4375 C 35.402297 19.17523 36.239541 20.777307 36.96875 22.125 C 37.409217 22.939052 37.857152 23.452481 38.28125 24.0625 C 30.256079 27.416753 23.238168 27.35959 18.21875 25.53125 C 12.966986 23.618277 10 19.899781 10 16.6875 C 10 14.083114 10.886399 12.900676 11.71875 12.21875 C 12.134925 11.877787 12.560708 11.686665 12.875 11.5625 C 12.901966 11.551847 12.913183 11.541582 12.9375 11.53125 C 13.770067 12.44244 14.658542 13.319181 15.59375 14.15625 C 19.740001 17.867401 24.691487 20.865811 28.03125 22.6875 A 1.0001 1.0001 0 1 0 28.96875 20.9375 C 25.708513 19.159189 20.891249 16.226349 16.9375 12.6875 C 15.937401 11.79235 14.999629 10.865394 14.15625 9.90625 C 14.201347 9.588558 14.284534 9.1133301 14.5625 8.53125 C 14.954298 7.7107943 15.57944 6.8230322 16.40625 6.15625 C 17.23306 5.4894678 18.241954 4.9891621 19.5 4.96875 z M 39.96875 17.6875 A 1.0001 1.0001 0 0 0 39.84375 19.65625 C 42.525653 20.338916 44.668108 21.198165 46.0625 22.09375 C 47.456892 22.989335 48 23.842754 48 24.5 C 48 25.090041 47.602853 25.801455 46.53125 26.59375 C 45.459647 27.386045 43.7872 28.18419 41.6875 28.84375 C 37.4881 30.16287 31.564787 31 25 31 C 18.435213 31 12.5119 30.16287 8.3125 28.84375 C 6.2127998 28.18419 4.5403535 27.386045 3.46875 26.59375 C 2.3971465 25.801455 2 25.090041 2 24.5 C 2 24.022549 2.2641658 23.442434 3 22.78125 C 3.7358342 22.120066 4.8927364 21.434094 6.375 20.8125 A 1.0001 1.0001 0 1 0 5.625 18.96875 C 4.0072636 19.647156 2.6454158 20.423684 1.65625 21.3125 C 0.66708425 22.201316 0 23.277451 0 24.5 C 0 24.585584 -0.0062953259 24.6658 0 24.75 A 1.0001 1.0001 0 0 0 0 25 C 0 30.787237 2.045049 35.621947 4.1875 39.09375 C 6.329951 42.565553 8.6589256 44.752676 9 45.09375 C 11.185324 47.279074 16.385714 50 25 50 C 33.587299 50 38.526177 47.308979 40.9375 45.125 L 40.96875 45.125 C 41.518153 44.635365 43.722312 42.552337 45.84375 39.09375 C 47.97421 35.620454 50 30.784234 50 25 A 1.0001 1.0001 0 0 0 49.96875 24.8125 C 49.978661 24.707084 50 24.607609 50 24.5 C 50 22.857246 48.836858 21.485665 47.15625 20.40625 C 45.475642 19.326835 43.161847 18.436084 40.34375 17.71875 A 1.0001 1.0001 0 0 0 40.0625 17.6875 A 1.0001 1.0001 0 0 0 39.96875 17.6875 z M 2.25 28.1875 C 2.2619283 28.19641 2.2692552 28.209882 2.28125 28.21875 C 3.6315215 29.21708 5.4809502 30.04706 7.71875 30.75 C 12.19435 32.15588 18.264787 33 25 33 C 31.735213 33 37.80565 32.15588 42.28125 30.75 C 44.51905 30.04706 46.368478 29.21708 47.71875 28.21875 C 47.730745 28.209882 47.738072 28.19641 47.75 28.1875 C 47.190268 32.101892 45.703851 35.457244 44.125 38.03125 C 42.13046 41.282954 39.987373 43.334141 39.625 43.65625 C 37.630353 45.469566 33.193651 48 25 48 C 16.814286 48 12.020926 45.302176 10.40625 43.6875 C 9.9473244 43.228574 7.913799 41.284447 5.90625 38.03125 C 4.3171008 35.456062 2.8149434 32.100848 2.25 28.1875 z" color="#000" overflow="visible" enable-background="accumulate" font-family="Bitstream Vera Sans"></path>
</svg>