<svg xmlns="http://www.w3.org/2000/svg" width="50" height="50" viewBox="0 0 50 50">
    <path style="text-indent:0;text-align:start;line-height:normal;text-transform:none;block-progression:tb;-inkscape-font-specification:Bitstream Vera Sans" d="M 33.1875 1.8125 L 32.84375 2.625 L 25.96875 20 L 11.875 20 C 11.48062 17.49825 10.098148 15.417401 7.96875 14.3125 C 7.9768987 14.209019 8 14.105454 8 14 C 8 11.802706 6.1972944 10 4 10 C 1.8027056 10 0 11.802706 0 14 C 0 16.197294 1.8027056 18 4 18 C 5.373309 18 6.591242 17.283335 7.3125 16.21875 C 9.0126551 17.222259 10 19.033812 10 21.46875 A 1 1 0 0 0 10.03125 21.75 C 10.284247 27.926811 13.605 33.020774 18.5625 36.03125 C 15.459655 36.253397 13 38.842747 13 42 C 13 45.301864 15.698136 48 19 48 C 22.301864 48 25 45.301864 25 42 C 25 40.570942 24.497275 39.251831 23.65625 38.21875 C 25.501788 38.730057 27.472767 39 29.5 39 C 32.055802 39 34.502593 38.549798 36.75 37.75 C 35.662733 38.837267 35 40.349068 35 42 C 35 45.301864 37.698136 48 41 48 C 44.301864 48 47 45.301864 47 42 C 47 38.698136 44.301864 36 41 36 C 40.814219 36 40.619086 36.014539 40.4375 36.03125 C 45.595545 32.899035 49 27.516753 49 21 L 49 20.84375 A 1 1 0 0 0 49 20.6875 L 49 20 L 48.96875 20 C 48.655819 11.133301 42.424961 4.2908212 34.03125 2.03125 L 33.1875 1.8125 z M 34.3125 4.3125 C 41.521059 6.5767594 46.672431 12.347112 46.96875 20 L 28.09375 20 L 34.3125 4.3125 z M 4 12 C 5.116414 12 6 12.883586 6 14 C 6 15.116414 5.116414 16 4 16 C 2.883586 16 2 15.116414 2 14 C 2 12.883586 2.883586 12 4 12 z M 12.09375 22 L 46.90625 22 C 46.361789 30.82284 38.906724 37 29.5 37 C 20.09227 37 12.638141 30.822894 12.09375 22 z M 19 38 C 21.220984 38 23 39.779016 23 42 C 23 44.220984 21.220984 46 19 46 C 16.779016 46 15 44.220984 15 42 C 15 39.779016 16.779016 38 19 38 z M 41 38 C 43.220984 38 45 39.779016 45 42 C 45 44.220984 43.220984 46 41 46 C 38.779016 46 37 44.220984 37 42 C 37 39.779016 38.779016 38 41 38 z" color="#000" overflow="visible" enable-background="accumulate" font-family="Bitstream Vera Sans"></path>
</svg>