<svg xmlns="http://www.w3.org/2000/svg" version="1" viewBox="0 0 50 50" enable-background="new 0 0 50 50">
    <path style="text-indent:0;text-align:start;line-height:normal;text-transform:none;block-progression:tb;-inkscape-font-specification:Bitstream Vera Sans" d="M 44.375 6.34375 C 43.938339 6.384644 43.524881 6.500633 43.125 6.71875 A 1.0001 1.0001 0 0 0 43.09375 6.71875 L 23.84375 17.65625 C 21.721778 16.604061 18.991861 16 16 16 C 12.802459 16 9.894147 16.684688 7.71875 17.875 C 5.543353 19.065312 4 20.855051 4 23 L 4 28.71875 L 2.15625 29.8125 L 2.09375 29.84375 C 1.4113074 30.193304 0.80243555 30.627423 0.40625 31.25 C -0.00222399 31.891888 -0.10243534 32.846866 0.3125 33.59375 A 1.0001 1.0001 0 0 0 0.34375 33.625 C 0.59841458 34.049441 1.0130724 34.379669 1.4375 34.53125 C 1.8619276 34.682831 2.2645809 34.679063 2.625 34.625 C 3.1808832 34.541617 3.6219328 34.339972 4 34.15625 L 4 37 C 4 37.215766 4.0356576 37.404392 4.0625 37.59375 L 2.375 38.25 L 2.375 38.28125 L 2.34375 38.28125 C 1.634464 38.523128 0.99706857 38.874636 0.53125 39.4375 C 0.06812981 39.997104 -0.12145192 40.89208 0.1875 41.65625 C 0.19386355 41.660564 0.1845172 41.68054 0.1875 41.6875 C 0.193466 41.70142 0.2124538 41.70499 0.21875 41.71875 C 0.41121958 42.139427 0.75310724 42.534268 1.125 42.71875 C 1.5212239 42.915302 1.8959052 42.946579 2.25 42.9375 C 2.9341905 42.91996 3.5165466 42.708914 3.9375 42.53125 C 3.952266 42.52505 3.985633 42.53745 4 42.53125 L 4 42.5 L 6.84375 41.5 C 9.1028869 43.095544 12.367998 44 16 44 C 19.197541 44 22.105853 43.315312 24.28125 42.125 C 26.456647 40.934688 28 39.144949 28 37 L 28 34.15625 L 47.8125 27.25 C 47.8214 27.247 47.83487 27.253 47.84375 27.25 C 49.54785 26.66541 50.404215 24.775146 49.84375 23.09375 C 49.401448 21.766843 48.169793 20.917869 46.875 20.90625 C 46.453445 20.90245 46.032605 21.00731 45.625 21.1875 C 45.6153 21.1918 45.60344 21.1831 45.59375 21.1875 L 28 28.125 L 28 23 C 28 22.664101 27.947197 22.348789 27.875 22.03125 L 46.25 12.6875 C 47.956936 11.834032 48.538342 9.7524266 47.6875 8.15625 C 47.6836 8.14851 47.6914 8.132695 47.6875 8.125 L 47.65625 8.125 C 47.004399 6.8648898 45.670852 6.2223915 44.375 6.34375 z M 44.59375 8.3125 C 45.107893 8.2733033 45.650042 8.550085 45.90625 9.0625 A 1.0001 1.0001 0 0 0 45.9375 9.09375 C 46.265032 9.6942256 46.02697 10.56464 45.34375 10.90625 L 27.03125 20.1875 C 26.677072 19.703108 26.223463 19.250091 25.71875 18.84375 L 44.09375 8.46875 C 44.243869 8.386867 44.422369 8.3255656 44.59375 8.3125 z M 16 18 C 18.62226 18 20.987056 18.547936 22.75 19.375 A 1.0001 1.0001 0 0 0 23.71875 19.875 C 25.234333 20.814748 26 21.939434 26 23 L 26 28.9375 L 6 36.8125 L 6 32.9375 A 1.0001 1.0001 0 0 0 6 31.96875 L 6 29.5625 A 1.0001 1.0001 0 0 0 6 29.0625 L 6 23 C 6 21.844949 6.887897 20.609688 8.6875 19.625 C 10.487103 18.640312 13.097541 18 16 18 z M 16 19 C 13.407143 19 11.271755 19.560252 9.71875 20.34375 C 8.9422477 20.735499 8.3180561 21.178882 7.84375 21.6875 C 7.3694439 22.196118 7 22.780952 7 23.5 C 7 24.219048 7.3694439 24.803882 7.84375 25.3125 C 8.3180561 25.821118 8.9422477 26.264501 9.71875 26.65625 C 11.271755 27.439748 13.407143 28 16 28 C 18.592857 28 20.728245 27.439748 22.28125 26.65625 C 23.057752 26.264501 23.681944 25.821118 24.15625 25.3125 C 24.630556 24.803882 25 24.219048 25 23.5 C 25 22.780952 24.630556 22.196118 24.15625 21.6875 C 23.681944 21.178882 23.057752 20.735499 22.28125 20.34375 C 20.728245 19.560252 18.592857 19 16 19 z M 16 21 C 18.307143 21 20.153005 21.508498 21.375 22.125 C 21.985998 22.433251 22.458681 22.752368 22.71875 23.03125 C 22.978819 23.310132 23 23.519048 23 23.5 C 23 23.48095 22.97882 23.689868 22.71875 23.96875 C 22.458681 24.247632 21.985998 24.566749 21.375 24.875 C 20.153005 25.491502 18.307143 26 16 26 C 13.692857 26 11.846995 25.491502 10.625 24.875 C 10.014002 24.566749 9.5413189 24.247632 9.28125 23.96875 C 9.0211811 23.689868 9 23.480952 9 23.5 C 9 23.519048 9.0211811 23.310132 9.28125 23.03125 C 9.5413189 22.752368 10.014002 22.433251 10.625 22.125 C 11.846995 21.508498 13.692857 21 16 21 z M 16 22.1875 C 14.343146 22.1875 13 22.859073 13 23.6875 C 13 24.515927 14.343146 25.1875 16 25.1875 C 17.656854 25.1875 19 24.515927 19 23.6875 C 19 22.859073 17.656854 22.1875 16 22.1875 z M 46.84375 22.90625 C 47.30032 22.926382 47.779803 23.245658 47.9375 23.71875 C 48.174116 24.428597 47.86572 25.117675 47.1875 25.34375 A 1.0001 1.0001 0 0 0 47.15625 25.34375 L 6.875 39.40625 A 1.0004882 1.0004882 0 0 0 6.6875 39.46875 L 6.59375 39.5 A 1.0004882 1.0004882 0 0 0 6.5 39.53125 L 3.28125 40.65625 A 1.0001 1.0001 0 0 0 3.21875 40.6875 C 2.9427042 40.805805 2.4855604 40.930659 2.21875 40.9375 C 2.0853448 40.940921 2.0006511 40.906573 2 40.90625 C 1.9451491 40.782836 1.9376774 40.838327 2.0625 40.6875 C 2.1873226 40.536673 2.5577411 40.314086 3.03125 40.15625 A 1.0001 1.0001 0 0 0 3.0625 40.125 L 5.1875 39.28125 A 1.0001 1.0001 0 0 0 5.90625 39 L 46.375 23.03125 A 1.0001 1.0001 0 0 0 46.40625 23 C 46.539915 22.939243 46.69156 22.899539 46.84375 22.90625 z M 4 31.03125 L 4 31.90625 L 3.4375 32.21875 L 3.40625 32.21875 C 3.0270923 32.406641 2.5848018 32.584155 2.3125 32.625 C 2.1729191 32.64594 2.1068224 32.6297 2.09375 32.625 C 2.08721 32.6227 2.065535 32.6277 2.0625 32.625 C 2.05408 32.60984 2.06921 32.60542 2.0625 32.59375 C 2.0013994 32.487576 1.9887612 32.477482 2.09375 32.3125 C 2.210276 32.129388 2.5718189 31.839091 3.0625 31.59375 A 1.0001 1.0001 0 0 0 3.09375 31.5625 L 4 31.03125 z M 26 34.84375 L 26 37 C 26 38.155051 25.112103 39.390312 23.3125 40.375 C 21.512897 41.359688 18.902459 42 16 42 C 13.420225 42 11.075394 41.486334 9.3125 40.65625 L 26 34.84375 z"></path>
</svg>