<svg xmlns="http://www.w3.org/2000/svg" width="50" height="50" viewBox="0 0 50 50">
    <path d="M 16.3125 0 C 15.549231 0 14.941395 0.29995486 14.28125 0.6875 C 13.621105 1.0750451 12.966753 1.5886457 12.4375 2.15625 C 11.183017 3.4999547 10.7773 4.5427013 10.53125 5.5625 C 10.226762 6.8253759 10.692681 8.0572878 11.40625 9.03125 C 11.947083 9.7694419 12.64914 10.395477 13.4375 10.84375 C 13.161032 11.852922 13 12.904438 13 14 C 13 15.834989 13.415531 17.567703 14.15625 19.125 C 13.223381 19.61772 5.6278705 23.615105 3.84375 24.53125 C 2.8945051 25.018458 1.9789381 25.685589 1.40625 26.6875 C 0.83356189 27.689411 0.73182995 29.028535 1.34375 30.375 C 1.9775907 31.769941 3.1572063 32.519327 4.25 32.6875 C 5.3427937 32.855673 6.3279507 32.575518 7.03125 32.3125 C 8.4392625 31.786733 11.097915 30.643512 12.625 30 L 12.1875 33.65625 C 8.9719356 35.215286 7.3082601 39.266018 8.25 43.25 C 9.3150741 47.755741 13.394755 50.792709 17.46875 49.8125 C 19.346808 49.36118 20.850624 48.15247 21.8125 46.53125 C 22.834287 46.682824 23.897921 46.78125 25 46.78125 C 26.10478 46.78125 27.164263 46.684805 28.1875 46.53125 C 29.149376 48.15247 30.653192 49.36118 32.53125 49.8125 C 36.605245 50.792709 40.684926 47.755741 41.75 43.25 C 42.694247 39.25541 41.013639 35.20617 37.78125 33.65625 L 37.34375 30 C 38.858535 30.638401 41.554015 31.784223 42.96875 32.3125 C 43.671501 32.574738 44.657288 32.855495 45.75 32.6875 C 46.842712 32.519505 48.022386 31.769992 48.65625 30.375 C 49.26817 29.028535 49.166251 27.689376 48.59375 26.6875 C 48.021249 25.685624 47.10496 25.018471 46.15625 24.53125 C 44.368077 23.612573 36.705898 19.505883 35.875 19.0625 C 36.596697 17.521647 37 15.809782 37 14 C 37 12.904438 36.838968 11.852922 36.5625 10.84375 C 37.35086 10.395477 38.052917 9.7694419 38.59375 9.03125 C 39.307319 8.0572878 39.773238 6.8253759 39.46875 5.5625 C 39.2227 4.5427013 38.816983 3.4999547 37.5625 2.15625 C 37.033247 1.5886457 36.378895 1.0750451 35.71875 0.6875 C 35.058605 0.29995486 34.450769 0 33.6875 0 C 31.6544 0 29.853514 1.0356836 28.8125 2.625 C 27.611869 2.2205797 26.335038 2 25 2 C 23.664962 2 22.388131 2.2205797 21.1875 2.625 C 20.146486 1.0356836 18.3456 0 16.3125 0 z M 16.3125 2 C 17.522709 2 18.581494 2.5707589 19.28125 3.4375 C 17.030585 4.6618762 15.216003 6.6084565 14.125 8.9375 C 13.709107 8.647518 13.322227 8.2721585 13.03125 7.875 C 12.554819 7.2247122 12.346238 6.5393741 12.46875 6.03125 C 12.6927 5.1030487 12.826733 4.6562953 13.90625 3.5 C 14.273997 3.1056043 14.789895 2.6947049 15.28125 2.40625 C 15.772605 2.1177951 16.268769 2 16.3125 2 z M 33.6875 2 C 33.73123 2 34.227395 2.1177951 34.71875 2.40625 C 35.210105 2.6947049 35.726003 3.1056043 36.09375 3.5 C 37.173267 4.6562953 37.3073 5.1030487 37.53125 6.03125 C 37.653762 6.5393741 37.44518 7.2247122 36.96875 7.875 C 36.677773 8.2721585 36.290893 8.647518 35.875 8.9375 C 34.783997 6.6084565 32.969415 4.6618762 30.71875 3.4375 C 31.418506 2.5707589 32.477291 2 33.6875 2 z M 25 4 C 29.209293 4 32.802873 6.5783378 34.28125 10.25 A 1.0001 1.0001 0 0 0 34.5625 11.03125 C 34.854082 11.971428 35 12.962245 35 14 C 35 16.50183 34.073625 18.780085 32.5625 20.53125 C 32.83107 19.732771 33 18.887045 33 18 C 33 14.970577 31.305952 12.326168 28.8125 10.96875 C 29.496299 10.828805 30 10.2245 30 9.5 C 30 8.672 29.329 8 28.5 8 C 27.671 8 27 8.672 27 9.5 C 27 9.8105 27.088334 10.104336 27.25 10.34375 C 26.534352 10.132683 25.782485 10 25 10 C 24.217515 10 23.465648 10.132683 22.75 10.34375 C 22.911666 10.104336 23 9.8105 23 9.5 C 23 8.672 22.329 8 21.5 8 C 20.671 8 20 8.672 20 9.5 C 20 10.2245 20.503701 10.828805 21.1875 10.96875 C 18.694048 12.326168 17 14.970577 17 18 C 17 18.887045 17.16893 19.732771 17.4375 20.53125 C 15.926375 18.780085 15 16.50183 15 14 C 15 12.962245 15.145918 11.971428 15.4375 11.03125 A 1.0001 1.0001 0 0 0 15.71875 10.25 C 17.197127 6.5783378 20.790707 4 25 4 z M 25 12 C 28.325553 12 31 14.674447 31 18 C 31 21.096359 28.69135 23.634464 25.6875 23.96875 C 25.465154 23.993494 25.229194 24 25 24 C 24.792153 24 24.577266 23.98915 24.375 23.96875 C 24.354436 23.967493 24.33303 23.970131 24.3125 23.96875 C 21.30865 23.634464 19 21.096359 19 18 C 19 14.674447 21.674447 12 25 12 z M 25 13 C 23.343146 13 22 14.343146 22 16 C 22 17.656854 23.343146 19 25 19 C 26.656854 19 28 17.656854 28 16 C 28 14.343146 26.656854 13 25 13 z M 34.875 20.8125 C 35.616218 21.206793 43.370182 25.34674 45.25 26.3125 C 45.99729 26.696279 46.594501 27.196626 46.875 27.6875 C 47.155499 28.178374 47.21858 28.668965 46.8125 29.5625 C 46.415364 30.436508 45.992038 30.602245 45.4375 30.6875 C 44.882962 30.77276 44.175499 30.63126 43.65625 30.4375 C 42.011919 29.82349 36.53125 27.5 36.53125 27.5 A 1.0001 1.0001 0 0 0 35.15625 28.53125 L 35.6875 33.0625 C 34.938337 32.972615 34.187158 32.994084 33.46875 33.15625 C 32.918244 33.280515 32.387787 33.497246 31.875 33.75 C 31.281784 30.492234 28.426393 28 25 28 C 21.573607 28 18.718216 30.492234 18.125 33.75 C 17.612213 33.497246 17.081756 33.280515 16.53125 33.15625 C 16.045881 33.046688 15.563845 32.995429 15.0625 33 C 14.811827 33.002285 14.568988 33.031512 14.3125 33.0625 L 14.84375 28.53125 A 1.0001 1.0001 0 0 0 13.46875 27.5 C 13.46875 27.5 7.9880806 29.82349 6.34375 30.4375 C 5.8250493 30.631482 5.1169563 30.772827 4.5625 30.6875 C 4.0080437 30.602173 3.5846593 30.405309 3.1875 29.53125 C 2.7814201 28.637715 2.8444381 28.178339 3.125 27.6875 C 3.4055619 27.196661 4.0334949 26.696292 4.78125 26.3125 C 6.6401918 25.357934 14.3283 21.281149 15.15625 20.84375 C 17.164984 23.722524 20.398154 25.689207 24.09375 25.96875 C 24.124881 25.971105 24.156304 25.966634 24.1875 25.96875 C 24.455873 25.996146 24.724598 26 25 26 C 25.307625 26 25.607494 26.002833 25.90625 25.96875 C 29.617123 25.688051 32.86817 23.710766 34.875 20.8125 z M 25 30 C 27.774873 30 30 32.235641 30 35 C 30 35.011255 30.000211 35.020288 30 35.03125 C 28.701406 36.220024 27.699328 37.84914 27.25 39.75 C 26.814804 41.591074 26.925588 43.447847 27.5 45.0625 C 26.694405 45.155206 25.862852 45.21875 25 45.21875 C 24.13445 45.21875 23.309565 45.154402 22.5 45.0625 C 23.074412 43.447847 23.185196 41.591074 22.75 39.75 C 22.300672 37.84914 21.298594 36.220024 20 35.03125 C 20.000113 35.020741 20 35.010571 20 35 C 20 32.235641 22.225127 30 25 30 z M 15.0625 35 C 16.145623 35.002791 17.223704 35.402155 18.15625 36.09375 A 1.0001 1.0001 0 0 0 18.65625 36.53125 C 18.661512 36.53609 18.68225 36.526389 18.6875 36.53125 C 19.664175 37.435682 20.419999 38.690495 20.78125 40.21875 C 21.634143 43.82687 19.842008 47.19203 17 47.875 C 14.157995 48.558791 11.071676 46.389509 10.21875 42.78125 C 9.3658211 39.172978 11.15691 35.808032 14 35.125 C 14.355251 35.039526 14.704454 34.999077 15.0625 35 z M 34.9375 35 C 35.292034 34.999128 35.644749 35.039526 36 35.125 C 38.84309 35.808032 40.634179 39.172978 39.78125 42.78125 C 38.928324 46.389509 35.842005 48.558791 33 47.875 C 30.157992 47.19203 28.365857 43.82687 29.21875 40.21875 C 29.608489 38.569979 30.472731 37.225376 31.5625 36.3125 A 1.0043849 1.0043849 0 0 0 31.65625 36.25 C 31.67946 36.23124 31.695344 36.205869 31.71875 36.1875 C 32.379036 35.669294 33.11095 35.303151 33.875 35.125 C 34.226615 35.043015 34.582966 35.000872 34.9375 35 z"></path>
</svg>