<svg xmlns="http://www.w3.org/2000/svg" version="1" width="50" height="50" viewBox="0 0 50 50">
    <path style="text-indent:0;text-align:start;line-height:normal;text-transform:none;block-progression:tb;-inkscape-font-specification:Bitstream Vera Sans" d="M 10 2 C 5.5935667 2 2 5.5935667 2 10 C 2 14.406433 5.5935666 18 10 18 C 14.406433 18 18 14.406433 18 10 C 18 5.5935666 14.406433 2 10 2 z M 10 4 C 13.325553 4 16 6.674447 16 10 C 16 13.325553 13.325553 16 10 16 C 6.674447 16 4 13.325553 4 10 C 4 6.6744469 6.6744469 4 10 4 z M 38.90625 11.3125 C 37.912137 11.3125 37.09375 12.099638 37.09375 13.09375 C 37.09375 13.481836 37.228613 13.831032 37.4375 14.125 C 32.646277 14.869766 29 18.996058 29 24 L 28.8125 24 A 1.0001 1.0001 0 0 0 28.6875 24 A 1.0019512 1.0019512 0 0 0 28.8125 26 L 31.53125 26 L 27.65625 29.78125 L 22.03125 21.4375 A 1.0001 1.0001 0 0 0 21.90625 21.28125 C 21.380075 20.755075 20.803131 20.652517 20.15625 20.5 C 19.509369 20.347483 18.801196 20.227644 18.09375 20.15625 C 16.678858 20.013463 15.355556 20 15 20 A 1.0001 1.0001 0 0 0 14.03125 20.78125 L 10 37.71875 L 5.96875 20.78125 A 1.0001 1.0001 0 0 0 5 20 C 4.1777778 20 2.2046901 20.196875 0.84375 20.40625 A 1.0001 1.0001 0 1 0 1.15625 22.375 C 2.1538746 22.221519 3.4512948 22.118285 4.25 22.0625 L 9.03125 42.21875 A 1.0001 1.0001 0 0 0 10.96875 42.21875 L 15.78125 22.03125 C 16.330128 22.04562 16.920623 22.05994 17.875 22.15625 C 18.530054 22.22236 19.212506 22.318142 19.71875 22.4375 C 20.207067 22.552632 20.513021 22.772043 20.46875 22.71875 C 20.46715 22.71675 20.5027 22.72145 20.5 22.71875 L 26.6875 31.875 A 1.0001 1.0001 0 0 0 28.1875 32.03125 L 34.40625 26 L 41.8125 26 C 41.568917 26.08074 41.415519 26.17292 41.15625 26.25 C 40.254195 26.518179 39.315017 26.762281 38.46875 27.03125 C 37.622483 27.300219 36.885699 27.489301 36.28125 28.09375 A 1.0001 1.0001 0 0 0 36.25 28.15625 C 36.25 28.15625 34.507739 30.160761 32.71875 32.25 C 31.824255 33.29462 30.938481 34.336053 30.21875 35.1875 C 29.499019 36.038947 29.014905 36.579133 28.78125 36.90625 L 28.8125 36.90625 C 28.381167 37.481361 28.089232 37.765753 27.9375 37.875 C 27.785768 37.984247 27.775 38 27.5 38 C 27.391667 38 27.267345 37.97362 27.03125 37.78125 C 26.795155 37.588876 26.508192 37.24597 26.15625 36.84375 L 21.75 31.84375 A 1.0001 1.0001 0 0 0 20 32.5 L 20 46 L 1 46 A 1.0001 1.0001 0 1 0 1 48 L 21 48 A 1.0001 1.0001 0 0 0 22 47 L 22 35.15625 L 24.65625 38.15625 C 25.004308 38.55403 25.342345 38.954874 25.78125 39.3125 C 26.220155 39.670126 26.808333 40 27.5 40 C 28.025 40 28.620482 39.840753 29.09375 39.5 C 29.567018 39.159247 29.937583 38.718639 30.40625 38.09375 C 30.4226 38.07087 31.004106 37.345428 31.71875 36.5 C 32.433394 35.654572 33.356995 34.57413 34.25 33.53125 C 36.021332 31.462632 37.690753 29.532462 37.71875 29.5 C 37.718982 29.499731 37.75 29.46875 37.75 29.46875 C 37.77781 29.45495 38.317777 29.174195 39.0625 28.9375 C 39.828733 28.693969 40.802055 28.438071 41.75 28.15625 C 42.697945 27.874429 43.624643 27.580551 44.40625 27.15625 C 44.797053 26.9441 45.13399 26.682523 45.4375 26.34375 C 45.527883 26.242865 45.610677 26.122571 45.6875 26 L 49.09375 26 A 1.0001 1.0001 0 1 0 49.09375 24 L 49 24 C 49 18.941523 45.274471 14.771703 40.40625 14.09375 C 40.600334 13.806468 40.6875 13.466542 40.6875 13.09375 C 40.6875 12.099638 39.900362 11.3125 38.90625 11.3125 z M 39 16 C 43.466667 16 47 19.533333 47 24 L 45.15625 24 L 33.90625 24 L 31 24 C 31 19.533333 34.533333 16 39 16 z" color="#000" overflow="visible" enable-background="accumulate" font-family="Bitstream Vera Sans"></path>
</svg>